Ruda-Regular.ufo
<glyph name="exclam" format="2">
  <advance width="268"/>
  <unicode hex="0021"/>
  <outline>
    <contour>
      <point x="102" y="190" type="line"/>
      <point x="166" y="190" type="line"/>
      <point x="181" y="695" type="line"/>
      <point x="88" y="695" type="line"/>
    </contour>
    <contour>
      <point x="80" y="0" type="line"/>
      <point x="188" y="0" type="line"/>
      <point x="188" y="89" type="line"/>
      <point x="80" y="89" type="line"/>
    </contour>
  </outline>
</glyph>
<glyph name="dollar" format="2">
  <advance width="512"/>
  <unicode hex="0024"/>
  <outline>
    <contour>
      <point x="218" y="-117" type="line"/>
      <point x="291" y="-117" type="line"/>
      <point x="291" y="-9" type="line"/>
      <point x="390" y="8"/>
      <point x="455" y="83"/>
      <point x="455" y="190" type="curve" smooth="yes"/>
      <point x="455" y="318"/>
      <point x="373" y="358"/>
      <point x="293" y="391" type="curve" smooth="yes"/>
      <point x="218" y="422"/>
      <point x="146" y="450"/>
      <point x="146" y="533" type="curve" smooth="yes"/>
      <point x="146" y="581"/>
      <point x="164" y="609"/>
      <point x="182" y="619" type="curve" smooth="yes"/>
      <point x="197" y="628"/>
      <point x="213" y="632"/>
      <point x="246" y="632" type="curve" smooth="yes"/>
      <point x="329" y="632"/>
      <point x="413" y="614"/>
      <point x="413" y="614" type="curve"/>
      <point x="427" y="686" type="line"/>
      <point x="427" y="686"/>
      <point x="367" y="703"/>
      <point x="294" y="707" type="curve"/>
      <point x="294" y="802" type="line"/>
      <point x="220" y="802" type="line"/>
      <point x="220" y="705" type="line"/>
      <point x="112" y="689"/>
      <point x="58" y="615"/>
      <point x="58" y="525" type="curve" smooth="yes"/>
      <point x="58" y="393"/>
      <point x="146" y="360"/>
      <point x="252" y="313" type="curve" smooth="yes"/>
      <point x="314" y="286"/>
      <point x="368" y="253"/>
      <point x="368" y="179" type="curve" smooth="yes"/>
      <point x="368" y="127"/>
      <point x="352" y="95"/>
      <point x="326" y="77" type="curve" smooth="yes"/>
      <point x="318" y="72"/>
      <point x="299" y="64"/>
      <point x="266" y="64" type="curve" smooth="yes"/>
      <point x="162" y="64"/>
      <point x="66" y="119"/>
      <point x="66" y="119" type="curve"/>
      <point x="66" y="120"/>
      <point x="36" y="51"/>
      <point x="36" y="51" type="curve"/>
      <point x="36" y="51"/>
      <point x="119" y="-2"/>
      <point x="218" y="-11" type="curve"/>
    </contour>
  </outline>
</glyph>
<glyph name="percent" format="2">
  <advance width="799"/>
  <unicode hex="0025"/>
  <outline>
    <contour>
      <point x="188" y="-9" type="line"/>
      <point x="263" y="-9" type="line"/>
      <point x="427" y="351" type="line"/>
      <point x="604" y="733" type="line"/>
      <point x="530" y="733" type="line"/>
      <point x="374" y="382" type="line"/>
    </contour>
    <contour>
      <point x="596" y="-7" type="curve" smooth="yes"/>
      <point x="670" y="-7"/>
      <point x="746" y="34"/>
      <point x="746" y="144" type="curve" smooth="yes"/>
      <point x="746" y="253"/>
      <point x="670" y="293"/>
      <point x="596" y="293" type="curve" smooth="yes"/>
      <point x="520" y="293"/>
      <point x="445" y="253"/>
      <point x="445" y="144" type="curve" smooth="yes"/>
      <point x="445" y="34"/>
      <point x="520" y="-7"/>
    </contour>
    <contour>
      <point x="596" y="60" type="curve" smooth="yes"/>
      <point x="548" y="60"/>
      <point x="516" y="80"/>
      <point x="516" y="144" type="curve" smooth="yes"/>
      <point x="516" y="206"/>
      <point x="548" y="226"/>
      <point x="596" y="226" type="curve" smooth="yes"/>
      <point x="643" y="226"/>
      <point x="675" y="206"/>
      <point x="675" y="144" type="curve" smooth="yes"/>
      <point x="675" y="80"/>
      <point x="643" y="60"/>
    </contour>
    <contour>
      <point x="203" y="407" type="curve" smooth="yes"/>
      <point x="277" y="407"/>
      <point x="353" y="448"/>
      <point x="353" y="558" type="curve" smooth="yes"/>
      <point x="353" y="667"/>
      <point x="277" y="707"/>
      <point x="203" y="707" type="curve" smooth="yes"/>
      <point x="128" y="707"/>
      <point x="53" y="667"/>
      <point x="53" y="558" type="curve" smooth="yes"/>
      <point x="53" y="448"/>
      <point x="128" y="407"/>
    </contour>
    <contour>
      <point x="203" y="474" type="curve" smooth="yes"/>
      <point x="156" y="474"/>
      <point x="123" y="494"/>
      <point x="123" y="558" type="curve" smooth="yes"/>
      <point x="123" y="620"/>
      <point x="156" y="640"/>
      <point x="203" y="640" type="curve" smooth="yes"/>
      <point x="250" y="640"/>
      <point x="283" y="620"/>
      <point x="283" y="558" type="curve" smooth="yes"/>
      <point x="283" y="494"/>
      <point x="250" y="474"/>
    </contour>
  </outline>
</glyph>
<glyph name="ampersand" format="2">
  <advance width="646"/>
  <unicode hex="0026"/>
  <outline>
    <contour>
      <point x="251" y="-13" type="curve" smooth="yes"/>
      <point x="342" y="-13"/>
      <point x="416" y="35"/>
      <point x="480" y="110" type="curve"/>
      <point x="512" y="55"/>
      <point x="533" y="4"/>
      <point x="539" y="-13" type="curve"/>
      <point x="619" y="-10" type="line"/>
      <point x="604" y="32"/>
      <point x="580" y="100"/>
      <point x="530" y="178" type="curve"/>
      <point x="586" y="265"/>
      <point x="618" y="352"/>
      <point x="618" y="352" type="curve"/>
      <point x="547" y="375" type="line"/>
      <point x="547" y="375"/>
      <point x="525" y="311"/>
      <point x="484" y="241" type="curve"/>
      <point x="442" y="291"/>
      <point x="403" y="330"/>
      <point x="334" y="379" type="curve"/>
      <point x="373" y="399"/>
      <point x="446" y="448"/>
      <point x="446" y="544" type="curve" smooth="yes"/>
      <point x="446" y="625"/>
      <point x="394" y="708"/>
      <point x="270" y="708" type="curve" smooth="yes"/>
      <point x="153" y="708"/>
      <point x="89" y="633"/>
      <point x="89" y="540" type="curve" smooth="yes"/>
      <point x="89" y="457"/>
      <point x="145" y="404"/>
      <point x="187" y="378" type="curve"/>
      <point x="132" y="355"/>
      <point x="39" y="291"/>
      <point x="39" y="187" type="curve" smooth="yes"/>
      <point x="39" y="90"/>
      <point x="117" y="-13"/>
    </contour>
    <contour>
      <point x="254" y="59" type="curve" smooth="yes"/>
      <point x="178" y="59"/>
      <point x="127" y="113"/>
      <point x="127" y="180" type="curve" smooth="yes"/>
      <point x="127" y="254"/>
      <point x="189" y="315"/>
      <point x="259" y="340" type="curve"/>
      <point x="320" y="304"/>
      <point x="384" y="249"/>
      <point x="439" y="174" type="curve"/>
      <point x="391" y="111"/>
      <point x="328" y="59"/>
    </contour>
    <contour>
      <point x="264" y="414" type="curve"/>
      <point x="208" y="442"/>
      <point x="173" y="481"/>
      <point x="173" y="545" type="curve" smooth="yes"/>
      <point x="173" y="600"/>
      <point x="199" y="639"/>
      <point x="266" y="639" type="curve" smooth="yes"/>
      <point x="336" y="639"/>
      <point x="361" y="596"/>
      <point x="361" y="546" type="curve" smooth="yes"/>
      <point x="361" y="478"/>
      <point x="315" y="435"/>
    </contour>
  </outline>
</glyph>
<glyph name="parenleft" format="2">
  <advance width="316"/>
  <unicode hex="0028"/>
  <outline>
    <contour>
      <point x="247" y="-124" type="curve"/>
      <point x="285" y="-72" type="line"/>
      <point x="190" y="-11"/>
      <point x="154" y="133"/>
      <point x="154" y="329" type="curve" smooth="yes"/>
      <point x="154" y="527"/>
      <point x="190" y="670"/>
      <point x="285" y="730" type="curve"/>
      <point x="247" y="783" type="line"/>
      <point x="154" y="727"/>
      <point x="69" y="603"/>
      <point x="69" y="329" type="curve" smooth="yes"/>
      <point x="69" y="59"/>
      <point x="154" y="-68"/>
    </contour>
  </outline>
</glyph>
<glyph name="plus" format="2">
  <advance width="621"/>
  <unicode hex="002B"/>
  <outline>
    <contour>
      <point x="273" y="32" type="line"/>
      <point x="347" y="32" type="line"/>
      <point x="347" y="273" type="line"/>
      <point x="328" y="258" type="line"/>
      <point x="569" y="258" type="line"/>
      <point x="569" y="328" type="line"/>
      <point x="326" y="328" type="line"/>
      <point x="347" y="307" type="line"/>
      <point x="347" y="553" type="line"/>
      <point x="273" y="553" type="line"/>
      <point x="273" y="310" type="line"/>
      <point x="288" y="328" type="line"/>
      <point x="52" y="328" type="line"/>
      <point x="52" y="258" type="line"/>
      <point x="286" y="258" type="line"/>
      <point x="273" y="270" type="line"/>
    </contour>
  </outline>
</glyph>
<glyph name="comma" format="2">
  <advance width="270"/>
  <unicode hex="002C"/>
  <outline>
    <contour>
      <point x="102" y="-166" type="line"/>
      <point x="141" y="-134"/>
      <point x="175" y="-80"/>
      <point x="176" y="14" type="curve" smooth="yes"/>
      <point x="176" y="84" type="line"/>
      <point x="94" y="84" type="line"/>
      <point x="94" y="-36" type="line" smooth="yes"/>
      <point x="94" y="-82"/>
      <point x="84" y="-110"/>
      <point x="62" y="-137" type="curve"/>
    </contour>
  </outline>
</glyph>
<glyph name="four" format="2">
  <advance width="537"/>
  <unicode hex="0034"/>
  <outline>
    <contour>
      <point x="340" y="0" type="line"/>
      <point x="425" y="0" type="line"/>
      <point x="424" y="162" type="line"/>
      <point x="488" y="162" type="line"/>
      <point x="488" y="238" type="line"/>
      <point x="424" y="236" type="line"/>
      <point x="424" y="505" type="line"/>
      <point x="362" y="505" type="line"/>
      <point x="343" y="236" type="line"/>
      <point x="118" y="232" type="line"/>
      <point x="118" y="237" type="line"/>
      <point x="269" y="695" type="line"/>
      <point x="187" y="706" type="line"/>
      <point x="29" y="225" type="line"/>
      <point x="29" y="162" type="line"/>
      <point x="343" y="162" type="line"/>
    </contour>
  </outline>
</glyph>
<glyph name="seven" format="2">
  <advance width="471"/>
  <unicode hex="0037"/>
  <outline>
    <contour>
      <point x="164" y="-7" type="line"/>
      <point x="448" y="640" type="line"/>
      <point x="448" y="695" type="line"/>
      <point x="24" y="695" type="line"/>
      <point x="24" y="619" type="line"/>
      <point x="363" y="625" type="line"/>
      <point x="363" y="619" type="line"/>
      <point x="75" y="1" type="line"/>
    </contour>
  </outline>
</glyph>
<glyph name="eight" format="2">
  <advance width="540"/>
  <unicode hex="0038"/>
  <outline>
    <contour>
      <point x="266" y="-13" type="curve" smooth="yes"/>
      <point x="409" y="-13"/>
      <point x="492" y="80"/>
      <point x="492" y="182" type="curve" smooth="yes"/>
      <point x="492" y="283"/>
      <point x="417" y="329"/>
      <point x="366" y="359" type="curve"/>
      <point x="424" y="392"/>
      <point x="471" y="444"/>
      <point x="471" y="533" type="curve" smooth="yes"/>
      <point x="471" y="630"/>
      <point x="405" y="708"/>
      <point x="269" y="708" type="curve" smooth="yes"/>
      <point x="137" y="708"/>
      <point x="68" y="635"/>
      <point x="68" y="534" type="curve" smooth="yes"/>
      <point x="68" y="454"/>
      <point x="113" y="402"/>
      <point x="163" y="366" type="curve"/>
      <point x="108" y="343"/>
      <point x="47" y="278"/>
      <point x="47" y="190" type="curve" smooth="yes"/>
      <point x="47" y="89"/>
      <point x="122" y="-13"/>
    </contour>
    <contour>
      <point x="269" y="59" type="curve" smooth="yes"/>
      <point x="170" y="59"/>
      <point x="138" y="114"/>
      <point x="138" y="182" type="curve" smooth="yes"/>
      <point x="138" y="270"/>
      <point x="175" y="301"/>
      <point x="241" y="326" type="curve"/>
      <point x="359" y="285"/>
      <point x="401" y="250"/>
      <point x="401" y="170" type="curve" smooth="yes"/>
      <point x="401" y="101"/>
      <point x="361" y="59"/>
    </contour>
    <contour>
      <point x="287" y="393" type="curve"/>
      <point x="190" y="432"/>
      <point x="152" y="473"/>
      <point x="152" y="543" type="curve" smooth="yes"/>
      <point x="152" y="600"/>
      <point x="179" y="639"/>
      <point x="270" y="639" type="curve" smooth="yes"/>
      <point x="357" y="639"/>
      <point x="386" y="596"/>
      <point x="386" y="532" type="curve" smooth="yes"/>
      <point x="386" y="455"/>
      <point x="349" y="415"/>
    </contour>
  </outline>
</glyph>
<glyph name="colon" format="2">
  <advance width="314"/>
  <unicode hex="003A"/>
  <outline>
    <contour>
      <point x="103" y="459" type="line"/>
      <point x="211" y="459" type="line"/>
      <point x="211" y="548" type="line"/>
      <point x="103" y="548" type="line"/>
    </contour>
    <contour>
      <point x="103" y="0" type="line"/>
      <point x="211" y="0" type="line"/>
      <point x="211" y="89" type="line"/>
      <point x="103" y="89" type="line"/>
    </contour>
  </outline>
</glyph>
<glyph name="less" format="2">
  <advance width="632"/>
  <unicode hex="003C"/>
  <outline>
    <contour>
      <point x="580" y="16" type="line"/>
      <point x="580" y="99" type="line"/>
      <point x="160" y="290" type="line"/>
      <point x="160" y="296" type="line"/>
      <point x="580" y="484" type="line"/>
      <point x="580" y="568" type="line"/>
      <point x="75" y="328" type="line"/>
      <point x="75" y="257" type="line"/>
    </contour>
  </outline>
</glyph>
<glyph name="equal" format="2">
  <advance width="618"/>
  <unicode hex="003D"/>
  <outline>
    <contour>
      <point x="52" y="335" type="line"/>
      <point x="566" y="335" type="line"/>
      <point x="566" y="407" type="line"/>
      <point x="52" y="407" type="line"/>
    </contour>
    <contour>
      <point x="52" y="179" type="line"/>
      <point x="566" y="179" type="line"/>
      <point x="566" y="251" type="line"/>
      <point x="52" y="251" type="line"/>
    </contour>
  </outline>
</glyph>
<glyph name="at" format="2">
  <advance width="835"/>
  <unicode hex="0040"/>
  <outline>
    <contour>
      <point x="413" y="-38" type="curve" smooth="yes"/>
      <point x="471" y="-38"/>
      <point x="511" y="-24"/>
      <point x="511" y="-24" type="curve"/>
      <point x="503" y="43" type="line"/>
      <point x="503" y="43"/>
      <point x="458" y="34"/>
      <point x="416" y="34" type="curve" smooth="yes"/>
      <point x="270" y="34"/>
      <point x="141" y="141"/>
      <point x="141" y="337" type="curve" smooth="yes"/>
      <point x="141" y="531"/>
      <point x="266" y="628"/>
      <point x="432" y="628" type="curve" smooth="yes"/>
      <point x="595" y="628"/>
      <point x="692" y="534"/>
      <point x="692" y="389" type="curve" smooth="yes"/>
      <point x="692" y="265"/>
      <point x="621" y="192"/>
      <point x="583" y="192" type="curve" smooth="yes"/>
      <point x="569" y="192"/>
      <point x="566" y="202"/>
      <point x="566" y="307" type="curve" smooth="yes"/>
      <point x="566" y="393"/>
      <point x="568" y="526"/>
      <point x="568" y="526" type="curve"/>
      <point x="568" y="526"/>
      <point x="482" y="551"/>
      <point x="411" y="551" type="curve" smooth="yes"/>
      <point x="309" y="551"/>
      <point x="253" y="499"/>
      <point x="253" y="340" type="curve" smooth="yes"/>
      <point x="253" y="166"/>
      <point x="320" y="124"/>
      <point x="366" y="124" type="curve" smooth="yes"/>
      <point x="429" y="124"/>
      <point x="473" y="202"/>
      <point x="493" y="243" type="curve"/>
      <point x="497" y="243" type="line"/>
      <point x="499" y="171"/>
      <point x="516" y="124"/>
      <point x="574" y="124" type="curve" smooth="yes"/>
      <point x="664" y="124"/>
      <point x="765" y="236"/>
      <point x="765" y="392" type="curve" smooth="yes"/>
      <point x="765" y="591"/>
      <point x="602" y="702"/>
      <point x="431" y="702" type="curve" smooth="yes"/>
      <point x="255" y="702"/>
      <point x="66" y="584"/>
      <point x="66" y="330" type="curve" smooth="yes"/>
      <point x="66" y="84"/>
      <point x="243" y="-38"/>
    </contour>
    <contour>
      <point x="377" y="204" type="curve" smooth="yes"/>
      <point x="353" y="204"/>
      <point x="338" y="243"/>
      <point x="338" y="338" type="curve" smooth="yes"/>
      <point x="338" y="408"/>
      <point x="346" y="454"/>
      <point x="359" y="465" type="curve" smooth="yes"/>
      <point x="367" y="472"/>
      <point x="385" y="475"/>
      <point x="409" y="475" type="curve" smooth="yes"/>
      <point x="444" y="475"/>
      <point x="477" y="469"/>
      <point x="488" y="466" type="curve"/>
      <point x="488" y="363"/>
      <point x="424" y="204"/>
    </contour>
  </outline>
</glyph>
<glyph name="B" format="2">
  <advance width="614"/>
  <unicode hex="0042"/>
  <anchor x="307" y="0" name="bottom"/>
  <anchor x="307" y="695" name="top"/>
  <outline>
    <contour>
      <point x="323" y="-14" type="curve" smooth="yes"/>
      <point x="426" y="-14"/>
      <point x="530" y="29"/>
      <point x="530" y="203" type="curve" smooth="yes"/>
      <point x="530" y="335"/>
      <point x="432" y="361"/>
      <point x="395" y="361" type="curve" smooth="yes"/>
      <point x="393" y="361"/>
      <point x="391" y="361"/>
      <point x="389" y="361" type="curve"/>
      <point x="400" y="323" type="line"/>
      <point x="400" y="402" type="line"/>
      <point x="394" y="363" type="line"/>
      <point x="403" y="364"/>
      <point x="512" y="376"/>
      <point x="512" y="523" type="curve" smooth="yes"/>
      <point x="512" y="665"/>
      <point x="425" y="709"/>
      <point x="316" y="709" type="curve" smooth="yes"/>
      <point x="225" y="709"/>
      <point x="109" y="698"/>
      <point x="99" y="697" type="curve"/>
      <point x="104" y="735" type="line"/>
      <point x="110" y="323" type="line"/>
      <point x="106" y="-35" type="line"/>
      <point x="100" y="4" type="line"/>
      <point x="108" y="2"/>
      <point x="223" y="-14"/>
    </contour>
    <contour>
      <point x="334" y="51" type="curve" smooth="yes"/>
      <point x="258" y="51"/>
      <point x="198" y="60"/>
      <point x="189" y="61" type="curve"/>
      <point x="191" y="24" type="line"/>
      <point x="189" y="350" type="line"/>
      <point x="151" y="329" type="line"/>
      <point x="312" y="329" type="line" smooth="yes"/>
      <point x="392" y="329"/>
      <point x="441" y="298"/>
      <point x="441" y="198" type="curve" smooth="yes"/>
      <point x="441" y="98"/>
      <point x="421" y="51"/>
    </contour>
    <contour>
      <point x="320" y="394" type="curve" smooth="yes"/>
      <point x="151" y="395" type="line"/>
      <point x="189" y="371" type="line"/>
      <point x="189" y="677" type="line"/>
      <point x="180" y="638" type="line"/>
      <point x="190" y="639"/>
      <point x="242" y="647"/>
      <point x="312" y="647" type="curve" smooth="yes"/>
      <point x="393" y="647"/>
      <point x="425" y="615"/>
      <point x="425" y="520" type="curve" smooth="yes"/>
      <point x="425" y="430"/>
      <point x="402" y="394"/>
    </contour>
  </outline>
</glyph>
<glyph name="E" format="2">
  <advance width="514"/>
  <unicode hex="0045"/>
  <anchor x="257" y="0" name="bottom"/>
  <anchor x="446" y="10" name="ogonek"/>
  <anchor x="276" y="695" name="top"/>
  <anchor x="20" y="695" name="topleft"/>
  <outline>
    <contour>
      <point x="105" y="0" type="line"/>
      <point x="446" y="0" type="line"/>
      <point x="446" y="74" type="line"/>
      <point x="151" y="72" type="line"/>
      <point x="190" y="34" type="line"/>
      <point x="183" y="347" type="line"/>
      <point x="146" y="318" type="line"/>
      <point x="422" y="318" type="line"/>
      <point x="422" y="389" type="line"/>
      <point x="146" y="389" type="line"/>
      <point x="183" y="364" type="line"/>
      <point x="190" y="662" type="line"/>
      <point x="151" y="624" type="line"/>
      <point x="446" y="621" type="line"/>
      <point x="446" y="695" type="line"/>
      <point x="105" y="695" type="line"/>
    </contour>
  </outline>
</glyph>
<glyph name="F" format="2">
  <advance width="500"/>
  <unicode hex="0046"/>
  <anchor x="250" y="0" name="bottom"/>
  <anchor x="250" y="695" name="top"/>
  <outline>
    <contour>
      <point x="105" y="0" type="line"/>
      <point x="188" y="0" type="line"/>
      <point x="184" y="332" type="line"/>
      <point x="146" y="318" type="line"/>
      <point x="415" y="318" type="line"/>
      <point x="415" y="389" type="line"/>
      <point x="146" y="388" type="line"/>
      <point x="183" y="372" type="line"/>
      <point x="190" y="662" type="line"/>
      <point x="151" y="624" type="line"/>
      <point x="446" y="621" type="line"/>
      <point x="446" y="695" type="line"/>
      <point x="105" y="695" type="line"/>
    </contour>
  </outline>
</glyph>
<glyph name="I" format="2">
  <advance width="295"/>
  <unicode hex="0049"/>
  <anchor x="148" y="0" name="bottom"/>
  <anchor x="189" y="10" name="ogonek"/>
  <anchor x="148" y="695" name="top"/>
  <anchor x="20" y="695" name="topleft"/>
  <outline>
    <contour>
      <point x="105" y="-1" type="line"/>
      <point x="190" y="0" type="line"/>
      <point x="186" y="388" type="line"/>
      <point x="190" y="695" type="line"/>
      <point x="105" y="695" type="line"/>
      <point x="108" y="318" type="line"/>
    </contour>
  </outline>
</glyph>
<glyph name="M" format="2">
  <advance width="814"/>
  <unicode hex="004D"/>
  <outline>
    <contour>
      <point x="100" y="0" type="line"/>
      <point x="184" y="0" type="line"/>
      <point x="193" y="649" type="line"/>
      <point x="154" y="611" type="line"/>
      <point x="236" y="611" type="line"/>
      <point x="186" y="647" type="line"/>
      <point x="368" y="127" type="line"/>
      <point x="319" y="163" type="line"/>
      <point x="492" y="163" type="line"/>
      <point x="445" y="127" type="line"/>
      <point x="628" y="647" type="line"/>
      <point x="577" y="611" type="line"/>
      <point x="658" y="611" type="line"/>
      <point x="621" y="649" type="line"/>
      <point x="630" y="0" type="line"/>
      <point x="714" y="0" type="line"/>
      <point x="690" y="695" type="line"/>
      <point x="568" y="695" type="line"/>
      <point x="397" y="206" type="line"/>
      <point x="447" y="242" type="line"/>
      <point x="366" y="242" type="line"/>
      <point x="416" y="206" type="line"/>
      <point x="246" y="695" type="line"/>
      <point x="124" y="695" type="line"/>
    </contour>
  </outline>
</glyph>
<glyph name="N" format="2">
  <advance width="680"/>
  <unicode hex="004E"/>
  <anchor x="339" y="0" name="bottom"/>
  <anchor x="339" y="695" name="top"/>
  <outline>
    <contour>
      <point x="105" y="0" type="line"/>
      <point x="189" y="0" type="line"/>
      <point x="175" y="636" type="line"/>
      <point x="136" y="594" type="line"/>
      <point x="216" y="594" type="line"/>
      <point x="161" y="632" type="line"/>
      <point x="462" y="0" type="line"/>
      <point x="575" y="0" type="line"/>
      <point x="575" y="695" type="line"/>
      <point x="491" y="695" type="line"/>
      <point x="505" y="58" type="line"/>
      <point x="546" y="101" type="line"/>
      <point x="465" y="101" type="line"/>
      <point x="520" y="62" type="line"/>
      <point x="218" y="695" type="line"/>
      <point x="105" y="695" type="line"/>
    </contour>
  </outline>
</glyph>
<glyph name="Q" format="2">
  <advance width="663"/>
  <unicode hex="0051"/>
  <anchor x="332" y="0" name="bottom"/>
  <anchor x="332" y="695" name="top"/>
  <outline>
    <contour>
      <point x="586" y="-92" type="line"/>
      <point x="619" y="-14" type="line"/>
      <point x="479" y="33" type="line"/>
      <point x="481" y="20" type="line"/>
      <point x="482" y="75" type="line"/>
      <point x="468" y="27" type="line"/>
      <point x="537" y="73"/>
      <point x="584" y="163"/>
      <point x="584" y="349" type="curve" smooth="yes"/>
      <point x="584" y="640"/>
      <point x="468" y="708"/>
      <point x="328" y="708" type="curve" smooth="yes"/>
      <point x="188" y="708"/>
      <point x="72" y="640"/>
      <point x="72" y="349" type="curve" smooth="yes"/>
      <point x="72" y="56"/>
      <point x="188" y="-13"/>
      <point x="328" y="-13" type="curve" smooth="yes"/>
      <point x="367" y="-13"/>
      <point x="405" y="-8"/>
      <point x="437" y="6" type="curve"/>
      <point x="382" y="16" type="line"/>
    </contour>
    <contour>
      <point x="328" y="63" type="curve" smooth="yes"/>
      <point x="212" y="63"/>
      <point x="161" y="96"/>
      <point x="161" y="346" type="curve" smooth="yes"/>
      <point x="161" y="595"/>
      <point x="209" y="632"/>
      <point x="328" y="632" type="curve" smooth="yes"/>
      <point x="446" y="632"/>
      <point x="495" y="595"/>
      <point x="495" y="346" type="curve" smooth="yes"/>
      <point x="495" y="96"/>
      <point x="443" y="63"/>
    </contour>
  </outline>
</glyph>
<glyph name="R" format="2">
  <advance width="635"/>
  <unicode hex="0052"/>
  <anchor x="318" y="0" name="bottom"/>
  <anchor x="318" y="695" name="top"/>
  <outline>
    <contour>
      <point x="105" y="0" type="line"/>
      <point x="190" y="0" type="line"/>
      <point x="190" y="311" type="line"/>
      <point x="152" y="282" type="line"/>
      <point x="358" y="275" type="line"/>
      <point x="303" y="310" type="line"/>
      <point x="460" y="0" type="line"/>
      <point x="559" y="0" type="line"/>
      <point x="384" y="315" type="line"/>
      <point x="402" y="262" type="line"/>
      <point x="402" y="286" type="line"/>
      <point x="498" y="309"/>
      <point x="550" y="376"/>
      <point x="550" y="492" type="curve" smooth="yes"/>
      <point x="550" y="650"/>
      <point x="464" y="708"/>
      <point x="328" y="708" type="curve" smooth="yes"/>
      <point x="251" y="708"/>
      <point x="137" y="699"/>
      <point x="107" y="695" type="curve"/>
      <point x="110" y="329" type="line"/>
    </contour>
    <contour>
      <point x="338" y="346" type="curve" smooth="yes"/>
      <point x="283" y="346"/>
      <point x="217" y="353"/>
      <point x="166" y="359" type="curve"/>
      <point x="189" y="331" type="line"/>
      <point x="191" y="671" type="line"/>
      <point x="179" y="631" type="line"/>
      <point x="199" y="634"/>
      <point x="276" y="644"/>
      <point x="340" y="644" type="curve" smooth="yes"/>
      <point x="375" y="644"/>
      <point x="407" y="639"/>
      <point x="422" y="630" type="curve" smooth="yes"/>
      <point x="446" y="616"/>
      <point x="461" y="576"/>
      <point x="461" y="493" type="curve" smooth="yes"/>
      <point x="461" y="391"/>
      <point x="436" y="346"/>
    </contour>
  </outline>
</glyph>
<glyph name="T" format="2">
  <advance width="474"/>
  <unicode hex="0054"/>
  <anchor x="237" y="0" name="bottom"/>
  <anchor x="237" y="348" name="center"/>
  <anchor x="237" y="695" name="top"/>
  <outline>
    <contour>
      <point x="195" y="0" type="line"/>
      <point x="279" y="0" type="line"/>
      <point x="277" y="662" type="line"/>
      <point x="249" y="624" type="line"/>
      <point x="472" y="621" type="line"/>
      <point x="472" y="695" type="line"/>
      <point x="2" y="695" type="line"/>
      <point x="2" y="621" type="line"/>
      <point x="221" y="624" type="line"/>
      <point x="197" y="662" type="line"/>
    </contour>
  </outline>
</glyph>
<glyph name="V" format="2">
  <advance width="506"/>
  <unicode hex="0056"/>
  <anchor x="264" y="0" name="bottom"/>
  <anchor x="264" y="695" name="top"/>
  <outline>
    <contour>
      <point x="193" y="0" type="line"/>
      <point x="313" y="0" type="line"/>
      <point x="501" y="695" type="line"/>
      <point x="415" y="695" type="line"/>
      <point x="247" y="37" type="line"/>
      <point x="294" y="74" type="line"/>
      <point x="212" y="74" type="line"/>
      <point x="259" y="37" type="line"/>
      <point x="91" y="695" type="line"/>
      <point x="5" y="695" type="line"/>
    </contour>
  </outline>
</glyph>
<glyph name="Y" format="2">
  <advance width="505"/>
  <unicode hex="0059"/>
  <guideline x="406" y="259" angle="0"/>
  <anchor x="253" y="0" name="bottom"/>
  <anchor x="253" y="695" name="top"/>
  <anchor x="22" y="695" name="topleft"/>
  <outline>
    <contour>
      <point x="210" y="0" type="line"/>
      <point x="295" y="0" type="line"/>
      <point x="291" y="306" type="line"/>
      <point x="277" y="227" type="line"/>
      <point x="489" y="695" type="line"/>
      <point x="398" y="695" type="line"/>
      <point x="242" y="313" type="line"/>
      <point x="293" y="347" type="line"/>
      <point x="213" y="347" type="line"/>
      <point x="264" y="313" type="line"/>
      <point x="107" y="695" type="line"/>
      <point x="16" y="695" type="line"/>
      <point x="228" y="227" type="line"/>
      <point x="214" y="307" type="line"/>
    </contour>
  </outline>
</glyph>
<glyph name="bracketleft" format="2">
  <advance width="310"/>
  <unicode hex="005B"/>
  <outline>
    <contour>
      <point x="106" y="-124" type="line"/>
      <point x="269" y="-124" type="line"/>
      <point x="269" y="-56" type="line"/>
      <point x="180" y="-59" type="line"/>
      <point x="180" y="718" type="line"/>
      <point x="269" y="715" type="line"/>
      <point x="269" y="783" type="line"/>
      <point x="106" y="783" type="line"/>
    </contour>
  </outline>
</glyph>
<glyph name="underscore" format="2">
  <advance width="536"/>
  <unicode hex="005F"/>
  <outline>
    <contour>
      <point x="16" y="-161" type="line"/>
      <point x="520" y="-161" type="line"/>
      <point x="520" y="-91" type="line"/>
      <point x="16" y="-91" type="line"/>
    </contour>
  </outline>
</glyph>
<glyph name="a" format="2">
  <advance width="569"/>
  <unicode hex="0061"/>
  <anchor x="285" y="0" name="bottom"/>
  <anchor x="473" y="10" name="ogonek"/>
  <anchor x="277" y="582" name="top"/>
  <outline>
    <contour>
      <point x="211" y="-13" type="curve" smooth="yes"/>
      <point x="313" y="-13"/>
      <point x="392" y="56"/>
      <point x="410" y="67" type="curve"/>
      <point x="363" y="61" type="line"/>
      <point x="445" y="61" type="line"/>
      <point x="400" y="98" type="line"/>
      <point x="419" y="0" type="line"/>
      <point x="473" y="0" type="line"/>
      <point x="473" y="383" type="line" smooth="yes"/>
      <point x="473" y="510"/>
      <point x="425" y="595"/>
      <point x="290" y="595" type="curve" smooth="yes"/>
      <point x="179" y="595"/>
      <point x="67" y="538"/>
      <point x="67" y="538" type="curve"/>
      <point x="96" y="473" type="line"/>
      <point x="96" y="473"/>
      <point x="204" y="523"/>
      <point x="307" y="523" type="curve" smooth="yes"/>
      <point x="332" y="523"/>
      <point x="357" y="520"/>
      <point x="371" y="501" type="curve" smooth="yes"/>
      <point x="391" y="474"/>
      <point x="390" y="410"/>
      <point x="390" y="332" type="curve"/>
      <point x="428" y="358" type="line"/>
      <point x="284" y="358" type="line" smooth="yes"/>
      <point x="145" y="358"/>
      <point x="54" y="314"/>
      <point x="54" y="172" type="curve" smooth="yes"/>
      <point x="54" y="53"/>
      <point x="118" y="-13"/>
    </contour>
    <contour>
      <point x="225" y="60" type="curve" smooth="yes"/>
      <point x="165" y="60"/>
      <point x="141" y="93"/>
      <point x="141" y="172" type="curve" smooth="yes"/>
      <point x="141" y="220"/>
      <point x="150" y="255"/>
      <point x="168" y="269" type="curve"/>
      <point x="183" y="282"/>
      <point x="222" y="288"/>
      <point x="283" y="288" type="curve" smooth="yes"/>
      <point x="347" y="288"/>
      <point x="382" y="282"/>
      <point x="396" y="280" type="curve"/>
      <point x="390" y="301" type="line"/>
      <point x="390" y="76" type="line"/>
      <point x="396" y="118" type="line"/>
      <point x="374" y="106"/>
      <point x="303" y="60"/>
    </contour>
  </outline>
</glyph>
<glyph name="b" format="2">
  <advance width="576"/>
  <unicode hex="0062"/>
  <anchor x="288" y="0" name="bottom"/>
  <anchor x="288" y="582" name="top"/>
  <outline>
    <contour>
      <point x="305" y="-13" type="curve" smooth="yes"/>
      <point x="405" y="-13"/>
      <point x="506" y="44"/>
      <point x="506" y="301" type="curve" smooth="yes"/>
      <point x="506" y="507"/>
      <point x="441" y="595"/>
      <point x="324" y="595" type="curve" smooth="yes"/>
      <point x="256" y="595"/>
      <point x="189" y="577"/>
      <point x="160" y="569" type="curve"/>
      <point x="173" y="548" type="line"/>
      <point x="173" y="753" type="line"/>
      <point x="90" y="753" type="line"/>
      <point x="90" y="25" type="line"/>
      <point x="148" y="5"/>
      <point x="250" y="-13"/>
    </contour>
    <contour>
      <point x="305" y="61" type="curve" smooth="yes"/>
      <point x="223" y="61"/>
      <point x="180" y="75"/>
      <point x="162" y="80" type="curve"/>
      <point x="173" y="40" type="line"/>
      <point x="173" y="525" type="line"/>
      <point x="162" y="490" type="line"/>
      <point x="181" y="496"/>
      <point x="236" y="521"/>
      <point x="316" y="521" type="curve" smooth="yes"/>
      <point x="347" y="521"/>
      <point x="374" y="515"/>
      <point x="387" y="505" type="curve" smooth="yes"/>
      <point x="407" y="489"/>
      <point x="419" y="431"/>
      <point x="419" y="317" type="curve" smooth="yes"/>
      <point x="419" y="145"/>
      <point x="391" y="94"/>
      <point x="373" y="77" type="curve" smooth="yes"/>
      <point x="359" y="65"/>
      <point x="341" y="61"/>
    </contour>
  </outline>
</glyph>
<glyph name="e" format="2">
  <advance width="571"/>
  <unicode hex="0065"/>
  <anchor x="287" y="0" name="bottom"/>
  <anchor x="405" y="10" name="ogonek"/>
  <anchor x="302" y="582" name="top"/>
  <outline>
    <contour>
      <point x="304" y="-14" type="curve" smooth="yes"/>
      <point x="399" y="-14"/>
      <point x="471" y="20"/>
      <point x="490" y="29" type="curve"/>
      <point x="469" y="96" type="line"/>
      <point x="438" y="87"/>
      <point x="364" y="58"/>
      <point x="286" y="58" type="curve" smooth="yes"/>
      <point x="247" y="58"/>
      <point x="221" y="66"/>
      <point x="203" y="82" type="curve" smooth="yes"/>
      <point x="187" y="97"/>
      <point x="152" y="140"/>
      <point x="161" y="273" type="curve"/>
      <point x="122" y="258" type="line"/>
      <point x="506" y="258" type="line"/>
      <point x="506" y="321" type="line" smooth="yes"/>
      <point x="506" y="525"/>
      <point x="432" y="596"/>
      <point x="302" y="596" type="curve" smooth="yes"/>
      <point x="172" y="596"/>
      <point x="72" y="525"/>
      <point x="72" y="292" type="curve" smooth="yes"/>
      <point x="72" y="67"/>
      <point x="165" y="-14"/>
    </contour>
    <contour>
      <point x="161" y="288" type="line"/>
      <point x="157" y="385"/>
      <point x="167" y="451"/>
      <point x="192" y="484" type="curve" smooth="yes"/>
      <point x="210" y="508"/>
      <point x="240" y="524"/>
      <point x="308" y="524" type="curve" smooth="yes"/>
      <point x="373" y="524"/>
      <point x="388" y="509"/>
      <point x="398" y="494" type="curve" smooth="yes"/>
      <point x="420" y="458"/>
      <point x="422" y="389"/>
      <point x="421" y="294" type="curve"/>
      <point x="459" y="331" type="line"/>
      <point x="122" y="324" type="line"/>
    </contour>
  </outline>
</glyph>
<glyph name="f" format="2">
  <advance width="338"/>
  <unicode hex="0066"/>
  <anchor x="169" y="0" name="bottom"/>
  <anchor x="169" y="582" name="top"/>
  <outline>
    <contour>
      <point x="115" y="0" type="line"/>
      <point x="198" y="0" type="line"/>
      <point x="198" y="519" type="line"/>
      <point x="160" y="481" type="line"/>
      <point x="325" y="481" type="line"/>
      <point x="325" y="548" type="line"/>
      <point x="160" y="548" type="line"/>
      <point x="197" y="532" type="line"/>
      <point x="197" y="673"/>
      <point x="211" y="696"/>
      <point x="267" y="696" type="curve" smooth="yes"/>
      <point x="286" y="696"/>
      <point x="337" y="694"/>
      <point x="337" y="694" type="curve"/>
      <point x="343" y="764" type="line"/>
      <point x="343" y="764"/>
      <point x="307" y="766"/>
      <point x="287" y="766" type="curve" smooth="yes"/>
      <point x="179" y="766"/>
      <point x="111" y="701"/>
      <point x="115" y="532" type="curve"/>
      <point x="152" y="555" type="line"/>
      <point x="50" y="535" type="line"/>
      <point x="50" y="484" type="line"/>
      <point x="153" y="484" type="line"/>
      <point x="115" y="522" type="line"/>
    </contour>
  </outline>
</glyph>
<glyph name="l" format="2">
  <advance width="263"/>
  <unicode hex="006C"/>
  <anchor x="132" y="0" name="bottom"/>
  <anchor x="132" y="291" name="center"/>
  <anchor x="132" y="582" name="top"/>
  <anchor x="243" y="582" name="topright"/>
  <outline>
    <contour>
      <point x="90" y="0" type="line"/>
      <point x="173" y="0" type="line"/>
      <point x="173" y="753" type="line"/>
      <point x="90" y="753" type="line"/>
    </contour>
  </outline>
</glyph>
<glyph name="m" format="2">
  <advance width="917"/>
  <unicode hex="006D"/>
  <anchor x="459" y="0" name="bottom"/>
  <anchor x="459" y="582" name="top"/>
  <outline>
    <contour>
      <point x="101" y="0" type="line"/>
      <point x="184" y="0" type="line"/>
      <point x="184" y="502" type="line"/>
      <point x="176" y="461" type="line"/>
      <point x="190" y="463"/>
      <point x="276" y="516"/>
      <point x="354" y="516" type="curve" smooth="yes"/>
      <point x="372" y="516"/>
      <point x="395" y="513"/>
      <point x="408" y="494" type="curve" smooth="yes"/>
      <point x="423" y="471"/>
      <point x="424" y="434"/>
      <point x="424" y="358" type="curve" smooth="yes"/>
      <point x="424" y="0" type="line"/>
      <point x="507" y="0" type="line"/>
      <point x="507" y="387" type="line" smooth="yes"/>
      <point x="507" y="422"/>
      <point x="503" y="454"/>
      <point x="501" y="481" type="curve"/>
      <point x="502" y="458" type="line"/>
      <point x="493" y="453"/>
      <point x="593" y="516"/>
      <point x="675" y="516" type="curve" smooth="yes"/>
      <point x="690" y="516"/>
      <point x="718" y="514"/>
      <point x="731" y="493" type="curve" smooth="yes"/>
      <point x="746" y="470"/>
      <point x="746" y="417"/>
      <point x="746" y="355" type="curve" smooth="yes"/>
      <point x="746" y="0" type="line"/>
      <point x="829" y="0" type="line"/>
      <point x="829" y="383" type="line" smooth="yes"/>
      <point x="829" y="513"/>
      <point x="799" y="595"/>
      <point x="691" y="595" type="curve" smooth="yes"/>
      <point x="604" y="595"/>
      <point x="528" y="544"/>
      <point x="469" y="509" type="curve"/>
      <point x="495" y="495" type="line"/>
      <point x="484" y="557"/>
      <point x="436" y="595"/>
      <point x="369" y="595" type="curve" smooth="yes"/>
      <point x="281" y="595"/>
      <point x="173" y="526"/>
      <point x="165" y="522" type="curve"/>
      <point x="209" y="525" type="line"/>
      <point x="128" y="525" type="line"/>
      <point x="172" y="488" type="line"/>
      <point x="157" y="582" type="line"/>
      <point x="101" y="582" type="line"/>
    </contour>
  </outline>
</glyph>
<glyph name="p" format="2">
  <advance width="577"/>
  <unicode hex="0070"/>
  <anchor x="289" y="0" name="bottom"/>
  <anchor x="289" y="582" name="top"/>
  <outline>
    <contour>
      <point x="85" y="-166" type="line"/>
      <point x="168" y="-166" type="line"/>
      <point x="168" y="22" type="line"/>
      <point x="154" y="2" type="line"/>
      <point x="167" y="-1"/>
      <point x="235" y="-14"/>
      <point x="296" y="-14" type="curve" smooth="yes"/>
      <point x="401" y="-14"/>
      <point x="507" y="44"/>
      <point x="507" y="302" type="curve" smooth="yes"/>
      <point x="507" y="507"/>
      <point x="439" y="595"/>
      <point x="331" y="595" type="curve" smooth="yes"/>
      <point x="243" y="595"/>
      <point x="181" y="538"/>
      <point x="145" y="514" type="curve"/>
      <point x="195" y="523" type="line"/>
      <point x="114" y="523" type="line"/>
      <point x="159" y="486" type="line"/>
      <point x="141" y="582" type="line"/>
      <point x="85" y="582" type="line"/>
    </contour>
    <contour>
      <point x="315" y="60" type="curve" smooth="yes"/>
      <point x="250" y="60"/>
      <point x="175" y="78"/>
      <point x="157" y="84" type="curve"/>
      <point x="168" y="54" type="line"/>
      <point x="168" y="505" type="line"/>
      <point x="160" y="462" type="line"/>
      <point x="172" y="470"/>
      <point x="260" y="521"/>
      <point x="334" y="521" type="curve" smooth="yes"/>
      <point x="368" y="521"/>
      <point x="383" y="511"/>
      <point x="390" y="504" type="curve" smooth="yes"/>
      <point x="407" y="487"/>
      <point x="419" y="449"/>
      <point x="419" y="318" type="curve" smooth="yes"/>
      <point x="419" y="155"/>
      <point x="400" y="99"/>
      <point x="372" y="76" type="curve" smooth="yes"/>
      <point x="354" y="61"/>
      <point x="329" y="60"/>
    </contour>
  </outline>
</glyph>
<glyph name="s" format="2">
  <advance width="492"/>
  <unicode hex="0073"/>
  <anchor x="246" y="0" name="bottom"/>
  <anchor x="251" y="582" name="top"/>
  <outline>
    <contour>
      <point x="245" y="-13" type="curve" smooth="yes"/>
      <point x="368" y="-13"/>
      <point x="434" y="61"/>
      <point x="434" y="169" type="curve" smooth="yes"/>
      <point x="434" y="279"/>
      <point x="365" y="311"/>
      <point x="293" y="332" type="curve" smooth="yes"/>
      <point x="215" y="355"/>
      <point x="134" y="366"/>
      <point x="134" y="450" type="curve" smooth="yes"/>
      <point x="134" y="478"/>
      <point x="143" y="500"/>
      <point x="155" y="509" type="curve" smooth="yes"/>
      <point x="167" y="518"/>
      <point x="190" y="523"/>
      <point x="230" y="523" type="curve" smooth="yes"/>
      <point x="314" y="523"/>
      <point x="393" y="501"/>
      <point x="393" y="501" type="curve"/>
      <point x="406" y="571" type="line"/>
      <point x="382" y="579"/>
      <point x="315" y="595"/>
      <point x="246" y="595" type="curve" smooth="yes"/>
      <point x="108" y="595"/>
      <point x="56" y="531"/>
      <point x="56" y="437" type="curve" smooth="yes"/>
      <point x="56" y="317"/>
      <point x="136" y="295"/>
      <point x="213" y="273" type="curve" smooth="yes"/>
      <point x="284" y="253"/>
      <point x="353" y="236"/>
      <point x="353" y="153" type="curve" smooth="yes"/>
      <point x="353" y="115"/>
      <point x="339" y="88"/>
      <point x="324" y="75" type="curve" smooth="yes"/>
      <point x="310" y="63"/>
      <point x="287" y="59"/>
      <point x="260" y="59" type="curve" smooth="yes"/>
      <point x="167" y="59"/>
      <point x="76" y="106"/>
      <point x="76" y="106" type="curve"/>
      <point x="55" y="35" type="line"/>
      <point x="55" y="35"/>
      <point x="146" y="-13"/>
    </contour>
  </outline>
</glyph>
<glyph name="u" format="2">
  <advance width="600"/>
  <unicode hex="0075"/>
  <anchor x="300" y="0" name="bottom"/>
  <anchor x="499" y="10" name="ogonek"/>
  <anchor x="300" y="582" name="top"/>
  <anchor x="580" y="582" name="topright"/>
  <outline>
    <contour>
      <point x="234" y="-13" type="curve" smooth="yes"/>
      <point x="327" y="-13"/>
      <point x="415" y="54"/>
      <point x="437" y="60" type="curve"/>
      <point x="390" y="56" type="line"/>
      <point x="471" y="56" type="line"/>
      <point x="426" y="93" type="line"/>
      <point x="443" y="0" type="line"/>
      <point x="499" y="0" type="line"/>
      <point x="499" y="582" type="line"/>
      <point x="416" y="582" type="line"/>
      <point x="416" y="81" type="line"/>
      <point x="437" y="129" type="line"/>
      <point x="381" y="104"/>
      <point x="311" y="66"/>
      <point x="243" y="66" type="curve" smooth="yes"/>
      <point x="216" y="66"/>
      <point x="194" y="72"/>
      <point x="185" y="87" type="curve" smooth="yes"/>
      <point x="174" y="106"/>
      <point x="171" y="152"/>
      <point x="171" y="226" type="curve" smooth="yes"/>
      <point x="171" y="582" type="line"/>
      <point x="88" y="582" type="line"/>
      <point x="88" y="195" type="line" smooth="yes"/>
      <point x="88" y="38"/>
      <point x="153" y="-13"/>
    </contour>
  </outline>
</glyph>
<glyph name="v" format="2">
  <advance width="474"/>
  <unicode hex="0076"/>
  <anchor x="237" y="0" name="bottom"/>
  <anchor x="237" y="582" name="top"/>
  <outline>
    <contour>
      <point x="183" y="0" type="line"/>
      <point x="291" y="0" type="line"/>
      <point x="459" y="582" type="line"/>
      <point x="370" y="582" type="line"/>
      <point x="231" y="34" type="line"/>
      <point x="278" y="71" type="line"/>
      <point x="196" y="71" type="line"/>
      <point x="243" y="34" type="line"/>
      <point x="103" y="582" type="line"/>
      <point x="14" y="582" type="line"/>
    </contour>
  </outline>
</glyph>
<glyph name="w" format="2">
  <advance width="727"/>
  <unicode hex="0077"/>
  <anchor x="364" y="0" name="bottom"/>
  <anchor x="364" y="582" name="top"/>
  <outline>
    <contour>
      <point x="139" y="0" type="line"/>
      <point x="261" y="0" type="line"/>
      <point x="369" y="477" type="line"/>
      <point x="323" y="440" type="line"/>
      <point x="405" y="440" type="line"/>
      <point x="359" y="477" type="line"/>
      <point x="467" y="0" type="line"/>
      <point x="589" y="0" type="line"/>
      <point x="704" y="582" type="line"/>
      <point x="619" y="582" type="line"/>
      <point x="525" y="28" type="line"/>
      <point x="570" y="65" type="line"/>
      <point x="488" y="65" type="line"/>
      <point x="534" y="28" type="line"/>
      <point x="425" y="505" type="line"/>
      <point x="303" y="505" type="line"/>
      <point x="194" y="28" type="line"/>
      <point x="240" y="65" type="line"/>
      <point x="159" y="65" type="line"/>
      <point x="203" y="28" type="line"/>
      <point x="109" y="582" type="line"/>
      <point x="24" y="582" type="line"/>
    </contour>
  </outline>
</glyph>
<glyph name="x" format="2">
  <advance width="491"/>
  <unicode hex="0078"/>
  <anchor x="246" y="0" name="bottom"/>
  <anchor x="246" y="582" name="top"/>
  <outline>
    <contour>
      <point x="17" y="0" type="line"/>
      <point x="113" y="0" type="line"/>
      <point x="254" y="285" type="line"/>
      <point x="199" y="251" type="line"/>
      <point x="280" y="251" type="line"/>
      <point x="225" y="285" type="line"/>
      <point x="369" y="0" type="line"/>
      <point x="466" y="0" type="line"/>
      <point x="272" y="334" type="line"/>
      <point x="271" y="269" type="line"/>
      <point x="463" y="582" type="line"/>
      <point x="369" y="582" type="line"/>
      <point x="228" y="316" type="line"/>
      <point x="284" y="349" type="line"/>
      <point x="202" y="349" type="line"/>
      <point x="258" y="316" type="line"/>
      <point x="113" y="582" type="line"/>
      <point x="19" y="582" type="line"/>
      <point x="211" y="271" type="line"/>
      <point x="210" y="336" type="line"/>
    </contour>
  </outline>
</glyph>
<glyph name="z" format="2">
  <advance width="471"/>
  <unicode hex="007A"/>
  <anchor x="236" y="0" name="bottom"/>
  <anchor x="242" y="582" name="top"/>
  <outline>
    <contour>
      <point x="34" y="0" type="line"/>
      <point x="435" y="0" type="line"/>
      <point x="435" y="69" type="line"/>
      <point x="91" y="65" type="line"/>
      <point x="131" y="26" type="line"/>
      <point x="131" y="108" type="line"/>
      <point x="109" y="39" type="line"/>
      <point x="450" y="546" type="line"/>
      <point x="429" y="477" type="line"/>
      <point x="429" y="582" type="line"/>
      <point x="47" y="582" type="line"/>
      <point x="47" y="513" type="line"/>
      <point x="371" y="517" type="line"/>
      <point x="333" y="556" type="line"/>
      <point x="333" y="474" type="line"/>
      <point x="354" y="543" type="line"/>
      <point x="13" y="36" type="line"/>
      <point x="34" y="105" type="line"/>
    </contour>
  </outline>
</glyph>
<glyph name="bar" format="2">
  <advance width="280"/>
  <unicode hex="007C"/>
  <outline>
    <contour>
      <point x="103" y="-81" type="line"/>
      <point x="177" y="-81" type="line"/>
      <point x="177" y="753" type="line"/>
      <point x="103" y="753" type="line"/>
    </contour>
  </outline>
</glyph>
<glyph name="asciitilde" format="2">
  <advance width="524"/>
  <unicode hex="007E"/>
  <outline>
    <contour>
      <point x="380" y="215" type="curve" smooth="yes"/>
      <point x="433" y="215"/>
      <point x="473" y="255"/>
      <point x="490" y="278" type="curve"/>
      <point x="464" y="319" type="line"/>
      <point x="444" y="307"/>
      <point x="409" y="290"/>
      <point x="386" y="290" type="curve" smooth="yes"/>
      <point x="327" y="290"/>
      <point x="216" y="363"/>
      <point x="145" y="363" type="curve" smooth="yes"/>
      <point x="99" y="363"/>
      <point x="47" y="310"/>
      <point x="27" y="289" type="curve"/>
      <point x="57" y="247" type="line"/>
      <point x="72" y="259"/>
      <point x="112" y="289"/>
      <point x="139" y="289" type="curve" smooth="yes"/>
      <point x="200" y="289"/>
      <point x="333" y="215"/>
    </contour>
  </outline>
</glyph>
<glyph name="section" format="2">
  <advance width="521"/>
  <unicode hex="00A7"/>
  <outline>
    <contour>
      <point x="259" y="-93" type="curve" smooth="yes"/>
      <point x="366" y="-93"/>
      <point x="439" y="-28"/>
      <point x="439" y="74" type="curve" smooth="yes"/>
      <point x="439" y="117"/>
      <point x="424" y="148"/>
      <point x="402" y="170" type="curve"/>
      <point x="435" y="201"/>
      <point x="470" y="245"/>
      <point x="470" y="302" type="curve" smooth="yes"/>
      <point x="470" y="395"/>
      <point x="383" y="423"/>
      <point x="301" y="452" type="curve" smooth="yes"/>
      <point x="227" y="478"/>
      <point x="157" y="496"/>
      <point x="157" y="562" type="curve" smooth="yes"/>
      <point x="157" y="593"/>
      <point x="166" y="613"/>
      <point x="177" y="622" type="curve" smooth="yes"/>
      <point x="187" y="631"/>
      <point x="210" y="637"/>
      <point x="238" y="637" type="curve" smooth="yes"/>
      <point x="322" y="637"/>
      <point x="394" y="615"/>
      <point x="394" y="615" type="curve"/>
      <point x="407" y="685" type="line"/>
      <point x="385" y="692"/>
      <point x="320" y="708"/>
      <point x="252" y="708" type="curve" smooth="yes"/>
      <point x="129" y="708"/>
      <point x="79" y="644"/>
      <point x="79" y="551" type="curve" smooth="yes"/>
      <point x="79" y="504"/>
      <point x="95" y="471"/>
      <point x="121" y="447" type="curve"/>
      <point x="84" y="418"/>
      <point x="59" y="376"/>
      <point x="59" y="328" type="curve" smooth="yes"/>
      <point x="59" y="232"/>
      <point x="146" y="195"/>
      <point x="232" y="169" type="curve" smooth="yes"/>
      <point x="299" y="149"/>
      <point x="361" y="131"/>
      <point x="361" y="70" type="curve" smooth="yes"/>
      <point x="361" y="30"/>
      <point x="348" y="5"/>
      <point x="332" y="-6" type="curve" smooth="yes"/>
      <point x="319" y="-16"/>
      <point x="296" y="-21"/>
      <point x="261" y="-21" type="curve" smooth="yes"/>
      <point x="175" y="-21"/>
      <point x="81" y="26"/>
      <point x="81" y="26" type="curve"/>
      <point x="60" y="-45" type="line"/>
      <point x="60" y="-45"/>
      <point x="146" y="-93"/>
    </contour>
    <contour>
      <point x="343" y="208" type="curve"/>
      <point x="317" y="217"/>
      <point x="289" y="228"/>
      <point x="245" y="243" type="curve" smooth="yes"/>
      <point x="192" y="261"/>
      <point x="137" y="284"/>
      <point x="137" y="326" type="curve" smooth="yes"/>
      <point x="137" y="363"/>
      <point x="155" y="390"/>
      <point x="178" y="414" type="curve"/>
      <point x="211" y="399"/>
      <point x="248" y="387"/>
      <point x="282" y="375" type="curve" smooth="yes"/>
      <point x="343" y="353"/>
      <point x="394" y="336"/>
      <point x="394" y="294" type="curve" smooth="yes"/>
      <point x="394" y="265"/>
      <point x="365" y="230"/>
    </contour>
  </outline>
</glyph>
<glyph name="copyright" format="2">
  <advance width="836"/>
  <unicode hex="00A9"/>
  <outline>
    <contour>
      <point x="417" y="-27" type="curve" smooth="yes"/>
      <point x="620" y="-27"/>
      <point x="764" y="119"/>
      <point x="764" y="322" type="curve" smooth="yes"/>
      <point x="764" y="525"/>
      <point x="620" y="671"/>
      <point x="417" y="671" type="curve" smooth="yes"/>
      <point x="224" y="671"/>
      <point x="72" y="525"/>
      <point x="72" y="322" type="curve" smooth="yes"/>
      <point x="72" y="119"/>
      <point x="214" y="-27"/>
    </contour>
    <contour>
      <point x="406" y="104" type="curve" smooth="yes"/>
      <point x="484" y="104"/>
      <point x="536" y="141"/>
      <point x="536" y="141" type="curve"/>
      <point x="518" y="202" type="line"/>
      <point x="518" y="202"/>
      <point x="459" y="175"/>
      <point x="401" y="175" type="curve" smooth="yes"/>
      <point x="383" y="175"/>
      <point x="367" y="179"/>
      <point x="358" y="188" type="curve" smooth="yes"/>
      <point x="343" y="201"/>
      <point x="327" y="241"/>
      <point x="327" y="315" type="curve" smooth="yes"/>
      <point x="327" y="401"/>
      <point x="340" y="436"/>
      <point x="355" y="453" type="curve" smooth="yes"/>
      <point x="364" y="464"/>
      <point x="383" y="468"/>
      <point x="420" y="468" type="curve" smooth="yes"/>
      <point x="438" y="468"/>
      <point x="498" y="462"/>
      <point x="512" y="460" type="curve"/>
      <point x="517" y="525" type="line"/>
      <point x="498" y="532"/>
      <point x="445" y="537"/>
      <point x="418" y="537" type="curve" smooth="yes"/>
      <point x="326" y="537"/>
      <point x="248" y="499"/>
      <point x="248" y="316" type="curve" smooth="yes"/>
      <point x="248" y="162"/>
      <point x="319" y="104"/>
    </contour>
    <contour>
      <point x="417" y="43" type="curve" smooth="yes"/>
      <point x="245" y="43"/>
      <point x="144" y="150"/>
      <point x="144" y="322" type="curve" smooth="yes"/>
      <point x="144" y="494"/>
      <point x="254" y="601"/>
      <point x="417" y="601" type="curve" smooth="yes"/>
      <point x="589" y="601"/>
      <point x="692" y="494"/>
      <point x="692" y="322" type="curve" smooth="yes"/>
      <point x="692" y="150"/>
      <point x="589" y="43"/>
    </contour>
  </outline>
</glyph>
<glyph name="ordfeminine" format="2">
  <advance width="424"/>
  <unicode hex="00AA"/>
  <outline>
    <contour>
      <point x="159" y="289" type="curve" smooth="yes"/>
      <point x="220" y="289"/>
      <point x="286" y="336"/>
      <point x="286" y="336" type="curve"/>
      <point x="290" y="336" type="line"/>
      <point x="300" y="298" type="line"/>
      <point x="346" y="298" type="line"/>
      <point x="346" y="557" type="line" smooth="yes"/>
      <point x="346" y="650"/>
      <point x="313" y="702"/>
      <point x="209" y="702" type="curve" smooth="yes"/>
      <point x="144" y="702"/>
      <point x="59" y="663"/>
      <point x="59" y="663" type="curve"/>
      <point x="77" y="605" type="line"/>
      <point x="77" y="605"/>
      <point x="149" y="640"/>
      <point x="212" y="640" type="curve" smooth="yes"/>
      <point x="271" y="640"/>
      <point x="278" y="622"/>
      <point x="278" y="546" type="curve"/>
      <point x="278" y="546"/>
      <point x="241" y="546"/>
      <point x="208" y="546" type="curve" smooth="yes"/>
      <point x="119" y="546"/>
      <point x="50" y="514"/>
      <point x="50" y="422" type="curve" smooth="yes"/>
      <point x="50" y="330"/>
      <point x="93" y="289"/>
    </contour>
    <contour>
      <point x="177" y="352" type="curve" smooth="yes"/>
      <point x="139" y="352"/>
      <point x="121" y="369"/>
      <point x="121" y="416" type="curve" smooth="yes"/>
      <point x="121" y="446"/>
      <point x="129" y="463"/>
      <point x="141" y="473" type="curve" smooth="yes"/>
      <point x="149" y="481"/>
      <point x="174" y="486"/>
      <point x="207" y="486" type="curve" smooth="yes"/>
      <point x="251" y="486"/>
      <point x="278" y="483"/>
      <point x="278" y="483" type="curve"/>
      <point x="278" y="386" type="line"/>
      <point x="278" y="386"/>
      <point x="219" y="352"/>
    </contour>
  </outline>
</glyph>
<glyph name="registered" format="2">
  <advance width="836"/>
  <unicode hex="00AE"/>
  <outline>
    <contour>
      <point x="417" y="-27" type="curve" smooth="yes"/>
      <point x="620" y="-27"/>
      <point x="764" y="119"/>
      <point x="764" y="322" type="curve" smooth="yes"/>
      <point x="764" y="525"/>
      <point x="620" y="671"/>
      <point x="417" y="671" type="curve" smooth="yes"/>
      <point x="224" y="671"/>
      <point x="72" y="525"/>
      <point x="72" y="322" type="curve" smooth="yes"/>
      <point x="72" y="119"/>
      <point x="214" y="-27"/>
    </contour>
    <contour>
      <point x="417" y="43" type="curve" smooth="yes"/>
      <point x="245" y="43"/>
      <point x="144" y="150"/>
      <point x="144" y="322" type="curve" smooth="yes"/>
      <point x="144" y="494"/>
      <point x="254" y="601"/>
      <point x="417" y="601" type="curve" smooth="yes"/>
      <point x="589" y="601"/>
      <point x="692" y="494"/>
      <point x="692" y="322" type="curve" smooth="yes"/>
      <point x="692" y="150"/>
      <point x="589" y="43"/>
    </contour>
    <contour>
      <point x="281" y="118" type="line"/>
      <point x="353" y="118" type="line"/>
      <point x="353" y="268" type="line"/>
      <point x="413" y="267" type="line"/>
      <point x="484" y="118" type="line"/>
      <point x="565" y="118" type="line"/>
      <point x="485" y="273" type="line"/>
      <point x="485" y="276" type="line"/>
      <point x="523" y="285"/>
      <point x="564" y="325"/>
      <point x="564" y="402" type="curve" smooth="yes"/>
      <point x="564" y="497"/>
      <point x="511" y="532"/>
      <point x="426" y="532" type="curve" smooth="yes"/>
      <point x="375" y="532"/>
      <point x="301" y="526"/>
      <point x="282" y="524" type="curve"/>
      <point x="284" y="311" type="line"/>
    </contour>
    <contour>
      <point x="431" y="331" type="curve" smooth="yes"/>
      <point x="408" y="331"/>
      <point x="376" y="332"/>
      <point x="352" y="335" type="curve"/>
      <point x="354" y="464" type="line"/>
      <point x="354" y="464"/>
      <point x="394" y="469"/>
      <point x="427" y="469" type="curve" smooth="yes"/>
      <point x="477" y="469"/>
      <point x="489" y="451"/>
      <point x="489" y="401" type="curve" smooth="yes"/>
      <point x="489" y="352"/>
      <point x="474" y="331"/>
    </contour>
  </outline>
</glyph>
<glyph name="degree" format="2">
  <advance width="347"/>
  <unicode hex="00B0"/>
  <outline>
    <contour>
      <point x="174" y="407" type="curve" smooth="yes"/>
      <point x="248" y="407"/>
      <point x="324" y="448"/>
      <point x="324" y="558" type="curve" smooth="yes"/>
      <point x="324" y="667"/>
      <point x="248" y="707"/>
      <point x="174" y="707" type="curve" smooth="yes"/>
      <point x="99" y="707"/>
      <point x="23" y="667"/>
      <point x="23" y="558" type="curve" smooth="yes"/>
      <point x="23" y="448"/>
      <point x="99" y="407"/>
    </contour>
    <contour>
      <point x="174" y="474" type="curve" smooth="yes"/>
      <point x="126" y="474"/>
      <point x="94" y="494"/>
      <point x="94" y="558" type="curve" smooth="yes"/>
      <point x="94" y="620"/>
      <point x="126" y="640"/>
      <point x="174" y="640" type="curve" smooth="yes"/>
      <point x="221" y="640"/>
      <point x="253" y="620"/>
      <point x="253" y="558" type="curve" smooth="yes"/>
      <point x="253" y="494"/>
      <point x="221" y="474"/>
    </contour>
  </outline>
</glyph>
<glyph name="plusminus" format="2">
  <advance width="559"/>
  <unicode hex="00B1"/>
  <outline>
    <contour>
      <point x="242" y="155" type="line"/>
      <point x="316" y="155" type="line"/>
      <point x="316" y="327" type="line"/>
      <point x="507" y="327" type="line"/>
      <point x="507" y="397" type="line"/>
      <point x="316" y="397" type="line"/>
      <point x="316" y="568" type="line"/>
      <point x="242" y="568" type="line"/>
      <point x="242" y="397" type="line"/>
      <point x="52" y="397" type="line"/>
      <point x="52" y="327" type="line"/>
      <point x="242" y="327" type="line"/>
    </contour>
    <contour>
      <point x="52" y="17" type="line"/>
      <point x="507" y="17" type="line"/>
      <point x="507" y="89" type="line"/>
      <point x="52" y="89" type="line"/>
    </contour>
  </outline>
</glyph>
<glyph name="acute" format="2">
  <advance width="214"/>
  <unicode hex="00B4"/>
  <outline>
    <contour>
      <point x="20" y="654" type="line"/>
      <point x="214" y="721" type="line"/>
      <point x="184" y="788" type="line"/>
      <point x="0" y="704" type="line"/>
    </contour>
  </outline>
</glyph>
<glyph name="periodcentered" format="2">
  <advance width="300"/>
  <unicode hex="00B7"/>
  <outline>
    <contour>
      <point x="154" y="274" type="curve" smooth="yes"/>
      <point x="181" y="274"/>
      <point x="210" y="289"/>
      <point x="210" y="331" type="curve" smooth="yes"/>
      <point x="210" y="374"/>
      <point x="181" y="387"/>
      <point x="154" y="387" type="curve" smooth="yes"/>
      <point x="126" y="387"/>
      <point x="97" y="374"/>
      <point x="97" y="331" type="curve" smooth="yes"/>
      <point x="97" y="289"/>
      <point x="126" y="274"/>
    </contour>
  </outline>
</glyph>
<glyph name="ordmasculine" format="2">
  <advance width="357"/>
  <unicode hex="00BA"/>
  <outline>
    <contour>
      <point x="178" y="289" type="curve" smooth="yes"/>
      <point x="297" y="289"/>
      <point x="334" y="368"/>
      <point x="334" y="495" type="curve" smooth="yes"/>
      <point x="334" y="623"/>
      <point x="297" y="702"/>
      <point x="178" y="702" type="curve" smooth="yes"/>
      <point x="61" y="702"/>
      <point x="23" y="623"/>
      <point x="23" y="495" type="curve" smooth="yes"/>
      <point x="23" y="368"/>
      <point x="61" y="289"/>
    </contour>
    <contour>
      <point x="178" y="350" type="curve" smooth="yes"/>
      <point x="116" y="350"/>
      <point x="93" y="374"/>
      <point x="93" y="495" type="curve" smooth="yes"/>
      <point x="93" y="618"/>
      <point x="116" y="641"/>
      <point x="178" y="641" type="curve" smooth="yes"/>
      <point x="241" y="641"/>
      <point x="265" y="618"/>
      <point x="265" y="495" type="curve" smooth="yes"/>
      <point x="265" y="374"/>
      <point x="241" y="350"/>
    </contour>
  </outline>
</glyph>
<glyph name="onequarter" format="2">
  <advance width="881"/>
  <unicode hex="00BC"/>
  <outline>
    <contour>
      <point x="248" y="-9" type="line"/>
      <point x="323" y="-9" type="line"/>
      <point x="487" y="351" type="line"/>
      <point x="664" y="733" type="line"/>
      <point x="590" y="733" type="line"/>
      <point x="434" y="382" type="line"/>
    </contour>
    <contour>
      <point x="64" y="298" type="line"/>
      <point x="321" y="298" type="line"/>
      <point x="321" y="356" type="line"/>
      <point x="233" y="356" type="line"/>
      <point x="233" y="697" type="line"/>
      <point x="161" y="702" type="line"/>
      <point x="39" y="609" type="line"/>
      <point x="75" y="563" type="line"/>
      <point x="161" y="636" type="line"/>
      <point x="165" y="636" type="line"/>
      <point x="165" y="356" type="line"/>
      <point x="64" y="356" type="line"/>
    </contour>
    <contour>
      <point x="722" y="0" type="line"/>
      <point x="787" y="0" type="line"/>
      <point x="787" y="82" type="line"/>
      <point x="824" y="82" type="line"/>
      <point x="824" y="142" type="line"/>
      <point x="787" y="141" type="line"/>
      <point x="787" y="293" type="line"/>
      <point x="735" y="293" type="line"/>
      <point x="724" y="141" type="line"/>
      <point x="608" y="138" type="line"/>
      <point x="608" y="140" type="line"/>
      <point x="702" y="399" type="line"/>
      <point x="641" y="406" type="line"/>
      <point x="546" y="134" type="line"/>
      <point x="546" y="82" type="line"/>
      <point x="724" y="82" type="line"/>
    </contour>
  </outline>
</glyph>
<glyph name="threequarters" format="2">
  <advance width="857"/>
  <unicode hex="00BE"/>
  <outline>
    <contour>
      <point x="228" y="-9" type="line"/>
      <point x="303" y="-9" type="line"/>
      <point x="467" y="351" type="line"/>
      <point x="644" y="733" type="line"/>
      <point x="570" y="733" type="line"/>
      <point x="414" y="382" type="line"/>
    </contour>
    <contour>
      <point x="169" y="290" type="curve" smooth="yes"/>
      <point x="263" y="290"/>
      <point x="295" y="343"/>
      <point x="295" y="410" type="curve" smooth="yes"/>
      <point x="295" y="487"/>
      <point x="247" y="505"/>
      <point x="218" y="509" type="curve"/>
      <point x="218" y="513" type="line"/>
      <point x="231" y="514"/>
      <point x="283" y="528"/>
      <point x="283" y="601" type="curve" smooth="yes"/>
      <point x="283" y="680"/>
      <point x="229" y="703"/>
      <point x="156" y="703" type="curve" smooth="yes"/>
      <point x="127" y="703"/>
      <point x="85" y="698"/>
      <point x="64" y="694" type="curve"/>
      <point x="69" y="639" type="line"/>
      <point x="109" y="644"/>
      <point x="124" y="645"/>
      <point x="145" y="645" type="curve" smooth="yes"/>
      <point x="177" y="645"/>
      <point x="195" y="640"/>
      <point x="205" y="632" type="curve" smooth="yes"/>
      <point x="212" y="625"/>
      <point x="217" y="612"/>
      <point x="217" y="593" type="curve" smooth="yes"/>
      <point x="217" y="543"/>
      <point x="191" y="542"/>
      <point x="104" y="535" type="curve"/>
      <point x="104" y="481" type="line"/>
      <point x="154" y="481" type="line" smooth="yes"/>
      <point x="202" y="481"/>
      <point x="228" y="465"/>
      <point x="228" y="413" type="curve" smooth="yes"/>
      <point x="228" y="367"/>
      <point x="213" y="348"/>
      <point x="169" y="348" type="curve" smooth="yes"/>
      <point x="117" y="348"/>
      <point x="61" y="376"/>
      <point x="61" y="376" type="curve"/>
      <point x="42" y="324" type="line"/>
      <point x="42" y="324"/>
      <point x="98" y="290"/>
    </contour>
    <contour>
      <point x="700" y="0" type="line"/>
      <point x="765" y="0" type="line"/>
      <point x="765" y="82" type="line"/>
      <point x="802" y="82" type="line"/>
      <point x="802" y="142" type="line"/>
      <point x="765" y="141" type="line"/>
      <point x="765" y="293" type="line"/>
      <point x="713" y="293" type="line"/>
      <point x="702" y="141" type="line"/>
      <point x="586" y="138" type="line"/>
      <point x="586" y="140" type="line"/>
      <point x="680" y="399" type="line"/>
      <point x="619" y="406" type="line"/>
      <point x="524" y="134" type="line"/>
      <point x="524" y="82" type="line"/>
      <point x="702" y="82" type="line"/>
    </contour>
  </outline>
</glyph>
<glyph name="AE" format="2">
  <advance width="765"/>
  <unicode hex="00C6"/>
  <anchor x="383" y="0" name="bottom"/>
  <anchor x="383" y="695" name="top"/>
  <outline>
    <contour>
      <point x="-3" y="0" type="line"/>
      <point x="86" y="0" type="line"/>
      <point x="179" y="218" type="line"/>
      <point x="126" y="183" type="line"/>
      <point x="394" y="183" type="line"/>
      <point x="356" y="213" type="line"/>
      <point x="356" y="0" type="line"/>
      <point x="697" y="0" type="line"/>
      <point x="697" y="75" type="line"/>
      <point x="401" y="73" type="line"/>
      <point x="440" y="35" type="line"/>
      <point x="434" y="339" type="line"/>
      <point x="397" y="318" type="line"/>
      <point x="673" y="318" type="line"/>
      <point x="673" y="389" type="line"/>
      <point x="397" y="389" type="line"/>
      <point x="434" y="365" type="line"/>
      <point x="440" y="660" type="line"/>
      <point x="401" y="622" type="line"/>
      <point x="697" y="619" type="line"/>
      <point x="697" y="695" type="line"/>
      <point x="296" y="695" type="line"/>
    </contour>
    <contour>
      <point x="171" y="221" type="line"/>
      <point x="352" y="662" type="line"/>
      <point x="300" y="627" type="line"/>
      <point x="394" y="627" type="line"/>
      <point x="356" y="665" type="line"/>
      <point x="356" y="236" type="line"/>
      <point x="394" y="256" type="line"/>
      <point x="147" y="256" type="line"/>
    </contour>
  </outline>
</glyph>
<glyph name="Thorn" format="2">
  <advance width="595"/>
  <unicode hex="00DE"/>
  <outline>
    <contour>
      <point x="103" y="0" type="line"/>
      <point x="187" y="0" type="line"/>
      <point x="186" y="171" type="line"/>
      <point x="178" y="144" type="line"/>
      <point x="201" y="142"/>
      <point x="274" y="137"/>
      <point x="313" y="137" type="curve" smooth="yes"/>
      <point x="422" y="137"/>
      <point x="532" y="185"/>
      <point x="532" y="379" type="curve" smooth="yes"/>
      <point x="532" y="534"/>
      <point x="461" y="611"/>
      <point x="337" y="611" type="curve" smooth="yes"/>
      <point x="277" y="611"/>
      <point x="213" y="606"/>
      <point x="164" y="603" type="curve"/>
      <point x="186" y="566" type="line"/>
      <point x="187" y="695" type="line"/>
      <point x="103" y="695" type="line"/>
      <point x="106" y="325" type="line"/>
    </contour>
    <contour>
      <point x="324" y="208" type="curve" smooth="yes"/>
      <point x="258" y="208"/>
      <point x="191" y="219"/>
      <point x="178" y="222" type="curve"/>
      <point x="185" y="195" type="line"/>
      <point x="185" y="574" type="line"/>
      <point x="173" y="533" type="line"/>
      <point x="192" y="539"/>
      <point x="261" y="547"/>
      <point x="321" y="547" type="curve" smooth="yes"/>
      <point x="356" y="547"/>
      <point x="392" y="540"/>
      <point x="407" y="531" type="curve" smooth="yes"/>
      <point x="422" y="522"/>
      <point x="443" y="494"/>
      <point x="443" y="389" type="curve" smooth="yes"/>
      <point x="443" y="305"/>
      <point x="436" y="250"/>
      <point x="412" y="227" type="curve" smooth="yes"/>
      <point x="396" y="212"/>
      <point x="368" y="208"/>
    </contour>
  </outline>
</glyph>
<glyph name="igrave" format="2">
  <advance width="295"/>
  <unicode hex="00EC"/>
  <outline>
    <contour>
      <point x="224" y="657" type="line"/>
      <point x="244" y="707" type="line"/>
      <point x="33" y="802" type="line"/>
      <point x="5" y="734" type="line"/>
    </contour>
    <component base="dotlessi"/>
  </outline>
</glyph>
<glyph name="eth" format="2">
  <advance width="576"/>
  <unicode hex="00F0"/>
  <outline>
    <contour>
      <point x="288" y="-13" type="curve" smooth="yes"/>
      <point x="453" y="-13"/>
      <point x="506" y="101"/>
      <point x="506" y="286" type="curve" smooth="yes"/>
      <point x="506" y="413"/>
      <point x="487" y="564"/>
      <point x="391" y="662" type="curve"/>
      <point x="460" y="704" type="line"/>
      <point x="453" y="775" type="line"/>
      <point x="345" y="704" type="line"/>
      <point x="315" y="727"/>
      <point x="281" y="748"/>
      <point x="247" y="766" type="curve"/>
      <point x="210" y="706" type="line"/>
      <point x="230" y="693"/>
      <point x="253" y="678"/>
      <point x="280" y="658" type="curve"/>
      <point x="226" y="626" type="line"/>
      <point x="234" y="556" type="line"/>
      <point x="329" y="617" type="line"/>
      <point x="376" y="574"/>
      <point x="404" y="533"/>
      <point x="420" y="482" type="curve"/>
      <point x="415" y="479" type="line"/>
      <point x="389" y="499"/>
      <point x="348" y="520"/>
      <point x="286" y="520" type="curve" smooth="yes"/>
      <point x="125" y="520"/>
      <point x="70" y="419"/>
      <point x="70" y="276" type="curve" smooth="yes"/>
      <point x="70" y="98"/>
      <point x="122" y="-13"/>
    </contour>
    <contour>
      <point x="288" y="58" type="curve" smooth="yes"/>
      <point x="187" y="58"/>
      <point x="154" y="90"/>
      <point x="154" y="275" type="curve" smooth="yes"/>
      <point x="154" y="418"/>
      <point x="191" y="448"/>
      <point x="288" y="448" type="curve" smooth="yes"/>
      <point x="384" y="448"/>
      <point x="421" y="418"/>
      <point x="421" y="275" type="curve" smooth="yes"/>
      <point x="421" y="90"/>
      <point x="389" y="58"/>
    </contour>
  </outline>
</glyph>
<glyph name="oslash" format="2">
  <advance width="579"/>
  <unicode hex="00F8"/>
  <outline>
    <contour>
      <point x="90" y="-45" type="line"/>
      <point x="166" y="-45" type="line"/>
      <point x="189" y="6" type="line"/>
      <point x="442" y="543" type="line"/>
      <point x="479" y="620" type="line"/>
      <point x="403" y="620" type="line"/>
      <point x="383" y="576" type="line"/>
      <point x="137" y="53" type="line"/>
    </contour>
    <component base="o" xOffset="1"/>
  </outline>
</glyph>
<glyph name="thorn" format="2">
  <advance width="591"/>
  <unicode hex="00FE"/>
  <outline>
    <contour>
      <point x="105" y="-166" type="line"/>
      <point x="184" y="-166" type="line"/>
      <point x="184" y="29" type="line"/>
      <point x="160" y="8" type="line"/>
      <point x="216" y="-3"/>
      <point x="280" y="-13"/>
      <point x="316" y="-13" type="curve" smooth="yes"/>
      <point x="418" y="-13"/>
      <point x="521" y="44"/>
      <point x="521" y="293" type="curve" smooth="yes"/>
      <point x="521" y="507"/>
      <point x="458" y="595"/>
      <point x="341" y="595" type="curve" smooth="yes"/>
      <point x="275" y="595"/>
      <point x="190" y="577"/>
      <point x="180" y="569" type="curve"/>
      <point x="184" y="553" type="line"/>
      <point x="184" y="753" type="line"/>
      <point x="105" y="753" type="line"/>
    </contour>
    <contour>
      <point x="315" y="60" type="curve" smooth="yes"/>
      <point x="256" y="60"/>
      <point x="212" y="73"/>
      <point x="165" y="82" type="curve"/>
      <point x="184" y="57" type="line"/>
      <point x="184" y="515" type="line"/>
      <point x="168" y="489" type="line"/>
      <point x="213" y="502"/>
      <point x="258" y="521"/>
      <point x="332" y="521" type="curve" smooth="yes"/>
      <point x="361" y="521"/>
      <point x="389" y="515"/>
      <point x="402" y="505" type="curve" smooth="yes"/>
      <point x="422" y="489"/>
      <point x="434" y="439"/>
      <point x="434" y="298" type="curve" smooth="yes"/>
      <point x="434" y="155"/>
      <point x="406" y="93"/>
      <point x="388" y="76" type="curve" smooth="yes"/>
      <point x="374" y="64"/>
      <point x="358" y="60"/>
    </contour>
  </outline>
</glyph>
<glyph name="dcroat" format="2">
  <advance width="581"/>
  <unicode hex="0111"/>
  <outline>
    <contour>
      <point x="592" y="689" type="line"/>
      <point x="218" y="689" type="line"/>
      <point x="218" y="625" type="line"/>
      <point x="436" y="628" type="line"/>
      <point x="592" y="625" type="line"/>
    </contour>
    <component base="d"/>
  </outline>
</glyph>
<glyph name="Hbar" format="2">
  <advance width="665"/>
  <unicode hex="0126"/>
  <outline>
    <contour>
      <point x="633" y="601" type="line"/>
      <point x="36" y="601" type="line"/>
      <point x="36" y="535" type="line"/>
      <point x="633" y="535" type="line"/>
    </contour>
    <component base="H"/>
  </outline>
</glyph>
<glyph name="hbar" format="2">
  <advance width="596"/>
  <unicode hex="0127"/>
  <outline>
    <contour>
      <point x="96" y="753" type="line"/>
      <point x="96" y="0" type="line"/>
      <point x="179" y="0" type="line"/>
      <point x="179" y="405" type="line"/>
      <point x="221" y="423"/>
      <point x="286" y="447"/>
      <point x="344" y="447" type="curve" smooth="yes"/>
      <point x="372" y="447"/>
      <point x="391" y="444"/>
      <point x="404" y="426" type="curve" smooth="yes"/>
      <point x="420" y="403"/>
      <point x="424" y="364"/>
      <point x="424" y="288" type="curve" smooth="yes"/>
      <point x="424" y="0" type="line"/>
      <point x="508" y="0" type="line"/>
      <point x="508" y="317" type="line" smooth="yes"/>
      <point x="508" y="452"/>
      <point x="474" y="525"/>
      <point x="355" y="525" type="curve" smooth="yes"/>
      <point x="304" y="525"/>
      <point x="232" y="499"/>
      <point x="179" y="476" type="curve"/>
      <point x="179" y="753" type="line"/>
    </contour>
    <contour>
      <point x="-4" y="614" type="line"/>
      <point x="125" y="616" type="line"/>
      <point x="315" y="614" type="line"/>
      <point x="315" y="679" type="line"/>
      <point x="-4" y="679" type="line"/>
    </contour>
  </outline>
</glyph>
<glyph name="imacron" format="2">
  <advance width="294"/>
  <unicode hex="012B"/>
  <outline>
    <contour>
      <point x="8" y="690" type="line"/>
      <point x="288" y="690" type="line"/>
      <point x="288" y="755" type="line"/>
      <point x="8" y="755" type="line"/>
    </contour>
    <component base="dotlessi"/>
  </outline>
</glyph>
<glyph name="dotlessi" format="2">
  <advance width="295"/>
  <unicode hex="0131"/>
  <anchor x="148" y="0" name="bottom"/>
  <anchor x="187" y="10" name="ogonek"/>
  <anchor x="148" y="582" name="top"/>
  <outline>
    <contour>
      <point x="106" y="0" type="line"/>
      <point x="189" y="0" type="line"/>
      <point x="189" y="582" type="line"/>
      <point x="106" y="582" type="line"/>
    </contour>
  </outline>
</glyph>
<glyph name="kgreenlandic" format="2">
  <advance width="533"/>
  <unicode hex="0138"/>
  <outline>
    <contour>
      <point x="434" y="0" type="line"/>
      <point x="542" y="0" type="line"/>
      <point x="277" y="314" type="line"/>
      <point x="277" y="319" type="line"/>
      <point x="524" y="582" type="line"/>
      <point x="417" y="582" type="line"/>
      <point x="160" y="285" type="line"/>
      <point x="162" y="344" type="line"/>
    </contour>
    <contour>
      <point x="101" y="0" type="line"/>
      <point x="184" y="0" type="line"/>
      <point x="184" y="506" type="line"/>
      <point x="158" y="582" type="line"/>
      <point x="101" y="582" type="line"/>
      <point x="102" y="300" type="line"/>
    </contour>
  </outline>
</glyph>
<glyph name="oe" format="2">
  <advance width="916"/>
  <unicode hex="0153"/>
  <anchor x="458" y="0" name="bottom"/>
  <anchor x="458" y="582" name="top"/>
  <outline>
    <contour>
      <point x="288" y="-13" type="curve" smooth="yes"/>
      <point x="386" y="-13"/>
      <point x="446" y="28"/>
      <point x="477" y="103" type="curve"/>
      <point x="428" y="80" type="line"/>
      <point x="508" y="80" type="line"/>
      <point x="457" y="105" type="line"/>
      <point x="495" y="22"/>
      <point x="560" y="-13"/>
      <point x="648" y="-13" type="curve" smooth="yes"/>
      <point x="752" y="-13"/>
      <point x="835" y="30"/>
      <point x="835" y="30" type="curve"/>
      <point x="814" y="98" type="line"/>
      <point x="814" y="98"/>
      <point x="713" y="60"/>
      <point x="638" y="60" type="curve" smooth="yes"/>
      <point x="590" y="60"/>
      <point x="568" y="68"/>
      <point x="550" y="84" type="curve" smooth="yes"/>
      <point x="535" y="97"/>
      <point x="510" y="132"/>
      <point x="507" y="225" type="curve" smooth="yes"/>
      <point x="507" y="297" type="line"/>
      <point x="469" y="259" type="line"/>
      <point x="851" y="259" type="line"/>
      <point x="851" y="321" type="line" smooth="yes"/>
      <point x="851" y="523"/>
      <point x="776" y="595"/>
      <point x="649" y="595" type="curve" smooth="yes"/>
      <point x="561" y="595"/>
      <point x="492" y="564"/>
      <point x="454" y="476" type="curve"/>
      <point x="505" y="502" type="line"/>
      <point x="425" y="502" type="line"/>
      <point x="474" y="480" type="line"/>
      <point x="443" y="552"/>
      <point x="387" y="595"/>
      <point x="288" y="595" type="curve" smooth="yes"/>
      <point x="122" y="595"/>
      <point x="70" y="478"/>
      <point x="70" y="291" type="curve" smooth="yes"/>
      <point x="70" y="103"/>
      <point x="122" y="-13"/>
    </contour>
    <contour>
      <point x="288" y="58" type="curve" smooth="yes"/>
      <point x="187" y="58"/>
      <point x="154" y="93"/>
      <point x="154" y="291" type="curve" smooth="yes"/>
      <point x="154" y="489"/>
      <point x="187" y="523"/>
      <point x="288" y="523" type="curve" smooth="yes"/>
      <point x="389" y="523"/>
      <point x="421" y="489"/>
      <point x="421" y="291" type="curve" smooth="yes"/>
      <point x="421" y="93"/>
      <point x="389" y="58"/>
    </contour>
    <contour>
      <point x="508" y="289" type="line"/>
      <point x="504" y="381"/>
      <point x="514" y="450"/>
      <point x="539" y="483" type="curve" smooth="yes"/>
      <point x="559" y="509"/>
      <point x="588" y="523"/>
      <point x="653" y="523" type="curve" smooth="yes"/>
      <point x="710" y="523"/>
      <point x="733" y="511"/>
      <point x="743" y="493" type="curve" smooth="yes"/>
      <point x="762" y="462"/>
      <point x="766" y="406"/>
      <point x="766" y="330" type="curve"/>
      <point x="469" y="324" type="line"/>
    </contour>
  </outline>
</glyph>
<glyph name="tcaron" format="2">
  <advance width="364"/>
  <unicode hex="0165"/>
  <outline>
    <contour>
      <point x="98" y="713" type="line"/>
      <point x="225" y="713" type="line"/>
      <point x="159" y="698" type="line"/>
      <point x="329" y="797" type="line"/>
      <point x="326" y="743" type="line"/>
      <point x="247" y="835" type="line"/>
      <point x="304" y="826" type="line"/>
      <point x="138" y="754" type="line"/>
      <point x="216" y="774" type="line"/>
      <point x="125" y="774" type="line"/>
      <point x="195" y="754" type="line"/>
      <point x="22" y="826" type="line"/>
      <point x="79" y="835" type="line"/>
      <point x="0" y="743" type="line"/>
      <point x="-3" y="797" type="line"/>
      <point x="164" y="698" type="line"/>
    </contour>
    <component base="t"/>
  </outline>
</glyph>
<glyph name="tbar" format="2">
  <advance width="364"/>
  <unicode hex="0167"/>
  <outline>
    <contour>
      <point x="45" y="317" type="line"/>
      <point x="45" y="254" type="line"/>
      <point x="154" y="256" type="line"/>
      <point x="310" y="253" type="line"/>
      <point x="310" y="317" type="line"/>
    </contour>
    <component base="t"/>
  </outline>
</glyph>
<glyph name="breve" format="2">
  <advance width="298"/>
  <unicode hex="02D8"/>
  <anchor x="149" y="582" name="_top"/>
  <anchor x="149" y="781" name="top"/>
  <outline>
    <contour>
      <point x="149" y="657" type="curve" smooth="yes"/>
      <point x="223" y="657"/>
      <point x="293" y="698"/>
      <point x="298" y="800" type="curve"/>
      <point x="241" y="806" type="line"/>
      <point x="236" y="745"/>
      <point x="200" y="724"/>
      <point x="149" y="724" type="curve" smooth="yes"/>
      <point x="98" y="724"/>
      <point x="62" y="745"/>
      <point x="57" y="806" type="curve"/>
      <point x="0" y="800" type="line"/>
      <point x="4" y="698"/>
      <point x="75" y="657"/>
    </contour>
  </outline>
</glyph>
<glyph name="dotaccent" format="2">
  <advance width="102"/>
  <unicode hex="02D9"/>
  <outline>
    <contour>
      <point x="0" y="681" type="line"/>
      <point x="102" y="681" type="line"/>
      <point x="102" y="766" type="line"/>
      <point x="0" y="766" type="line"/>
    </contour>
  </outline>
</glyph>
<glyph name="ring" format="2">
  <advance width="168"/>
  <unicode hex="02DA"/>
  <outline>
    <contour>
      <point x="84" y="647" type="curve" smooth="yes"/>
      <point x="125" y="647"/>
      <point x="168" y="666"/>
      <point x="168" y="730" type="curve" smooth="yes"/>
      <point x="168" y="795"/>
      <point x="125" y="814"/>
      <point x="84" y="814" type="curve" smooth="yes"/>
      <point x="43" y="814"/>
      <point x="0" y="795"/>
      <point x="0" y="730" type="curve" smooth="yes"/>
      <point x="0" y="666"/>
      <point x="43" y="647"/>
    </contour>
    <contour>
      <point x="84" y="693" type="curve" smooth="yes"/>
      <point x="60" y="693"/>
      <point x="48" y="699"/>
      <point x="48" y="730" type="curve" smooth="yes"/>
      <point x="48" y="762"/>
      <point x="60" y="768"/>
      <point x="84" y="768" type="curve" smooth="yes"/>
      <point x="108" y="768"/>
      <point x="118" y="762"/>
      <point x="118" y="730" type="curve" smooth="yes"/>
      <point x="118" y="699"/>
      <point x="108" y="693"/>
    </contour>
  </outline>
</glyph>
<glyph name="commaaccentcomb" format="2">
  <unicode hex="0326"/>
  <guideline x="130" y="197" angle="90"/>
  <anchor x="85" y="0" name="_bottom"/>
  <anchor x="65" y="-233" name="bottom"/>
  <outline>
    <contour>
      <point x="22" y="-233" type="line"/>
      <point x="68" y="-216"/>
      <point x="118" y="-186"/>
      <point x="124" y="-75" type="curve" smooth="yes"/>
      <point x="125" y="-55" type="line"/>
      <point x="47" y="-55" type="line"/>
      <point x="47" y="-80" type="line" smooth="yes"/>
      <point x="47" y="-149"/>
      <point x="40" y="-171"/>
      <point x="0" y="-192" type="curve"/>
    </contour>
  </outline>
</glyph>
<glyph name="Lje-cy" format="2">
  <advance width="945"/>
  <unicode hex="0409"/>
  <outline>
    <contour>
      <point x="43" y="-14" type="curve"/>
      <point x="27" y="54" type="line"/>
      <point x="44" y="57"/>
      <point x="61" y="60"/>
      <point x="72" y="64" type="curve" smooth="yes"/>
      <point x="111" y="78"/>
      <point x="120" y="99"/>
      <point x="128" y="224" type="curve" smooth="yes"/>
      <point x="158" y="695" type="line"/>
      <point x="242" y="695" type="line"/>
      <point x="210" y="223" type="line" smooth="yes"/>
      <point x="204" y="128"/>
      <point x="194" y="61"/>
      <point x="158" y="28" type="curve" smooth="yes"/>
      <point x="129" y="1"/>
      <point x="84" y="-14"/>
    </contour>
    <component base="Softsign-cy" xOffset="343"/>
    <component base="Ge-cy" xScale="-1" xOffset="638"/>
  </outline>
</glyph>
<glyph name="Dzhe-cy" format="2">
  <advance width="640"/>
  <unicode hex="040F"/>
  <outline>
    <contour>
      <point x="105" y="0" type="line"/>
      <point x="535" y="0" type="line"/>
      <point x="535" y="695" type="line"/>
      <point x="452" y="695" type="line"/>
      <point x="454" y="36" type="line"/>
      <point x="492" y="74" type="line"/>
      <point x="148" y="74" type="line"/>
      <point x="186" y="36" type="line"/>
      <point x="189" y="695" type="line"/>
      <point x="105" y="695" type="line"/>
    </contour>
    <contour>
      <point x="105" y="0" type="line"/>
      <point x="535" y="0" type="line"/>
      <point x="535" y="695" type="line"/>
      <point x="452" y="695" type="line"/>
      <point x="454" y="36" type="line"/>
      <point x="492" y="74" type="line"/>
      <point x="148" y="74" type="line"/>
      <point x="186" y="36" type="line"/>
      <point x="189" y="695" type="line"/>
      <point x="105" y="695" type="line"/>
    </contour>
    <contour>
      <point x="275" y="60" type="line"/>
      <point x="300" y="-124" type="line"/>
      <point x="371" y="-124" type="line"/>
      <point x="371" y="61" type="line"/>
    </contour>
  </outline>
</glyph>
<glyph name="De-cy" format="2">
  <advance width="665"/>
  <unicode hex="0414"/>
  <guideline x="322" y="70" angle="0"/>
  <outline>
    <contour>
      <point x="48" y="10" type="line"/>
      <point x="95" y="13"/>
      <point x="111" y="23"/>
      <point x="136" y="38" type="curve" smooth="yes"/>
      <point x="179" y="64"/>
      <point x="199" y="99"/>
      <point x="207" y="206" type="curve" smooth="yes"/>
      <point x="242" y="695" type="line"/>
      <point x="159" y="695" type="line"/>
      <point x="129" y="242" type="line" smooth="yes"/>
      <point x="123" y="144"/>
      <point x="106" y="99"/>
      <point x="77" y="84" type="curve" smooth="yes"/>
      <point x="60" y="75"/>
      <point x="44" y="74"/>
      <point x="27" y="74" type="curve"/>
    </contour>
    <contour>
      <point x="26" y="-104" type="line"/>
      <point x="110" y="-104" type="line"/>
      <point x="108" y="38" type="line"/>
      <point x="71" y="0" type="line"/>
      <point x="563" y="0" type="line"/>
      <point x="525" y="38" type="line"/>
      <point x="523" y="-104" type="line"/>
      <point x="607" y="-104" type="line"/>
      <point x="607" y="74" type="line"/>
      <point x="26" y="74" type="line"/>
    </contour>
    <contour>
      <point x="218" y="621" type="line"/>
      <point x="492" y="621" type="line"/>
      <point x="454" y="659" type="line"/>
      <point x="456" y="352" type="line"/>
      <point x="454" y="0" type="line"/>
      <point x="538" y="0" type="line"/>
      <point x="538" y="695" type="line"/>
      <point x="218" y="695" type="line"/>
    </contour>
  </outline>
</glyph>
<glyph name="Zhe-cy" format="2">
  <advance width="852"/>
  <unicode hex="0416"/>
  <guideline x="556" y="748" angle="0"/>
  <outline>
    <contour>
      <point x="10" y="1" type="line"/>
      <point x="116" y="1" type="line"/>
      <point x="382" y="347" type="line"/>
      <point x="129" y="696" type="line"/>
      <point x="32" y="696" type="line"/>
      <point x="292" y="347" type="line"/>
      <point x="290" y="367" type="line"/>
      <point x="290" y="326" type="line"/>
      <point x="293" y="346" type="line"/>
    </contour>
    <contour>
      <point x="378" y="1" type="line"/>
      <point x="462" y="1" type="line"/>
      <point x="456" y="347" type="line"/>
      <point x="462" y="696" type="line"/>
      <point x="378" y="696" type="line"/>
      <point x="384" y="347" type="line"/>
    </contour>
    <contour>
      <point x="830" y="1" type="line"/>
      <point x="547" y="346" type="line"/>
      <point x="550" y="326" type="line"/>
      <point x="550" y="367" type="line"/>
      <point x="548" y="347" type="line"/>
      <point x="808" y="696" type="line"/>
      <point x="711" y="696" type="line"/>
      <point x="458" y="347" type="line"/>
      <point x="724" y="1" type="line"/>
    </contour>
  </outline>
</glyph>
<glyph name="Iu-cy" format="2">
  <advance width="858"/>
  <unicode hex="042E"/>
  <outline>
    <contour>
      <point x="553" y="-13" type="curve" smooth="yes"/>
      <point x="680" y="-13"/>
      <point x="796" y="56"/>
      <point x="796" y="349" type="curve" smooth="yes"/>
      <point x="796" y="640"/>
      <point x="680" y="708"/>
      <point x="553" y="708" type="curve" smooth="yes"/>
      <point x="426" y="708"/>
      <point x="310" y="640"/>
      <point x="310" y="349" type="curve" smooth="yes"/>
      <point x="310" y="56"/>
      <point x="426" y="-13"/>
    </contour>
    <contour>
      <point x="105" y="0" type="line"/>
      <point x="189" y="0" type="line"/>
      <point x="186" y="353" type="line"/>
      <point x="148" y="313" type="line"/>
      <point x="355" y="313" type="line"/>
      <point x="354" y="387" type="line"/>
      <point x="148" y="387" type="line"/>
      <point x="186" y="347" type="line"/>
      <point x="189" y="695" type="line"/>
      <point x="105" y="695" type="line"/>
    </contour>
    <contour>
      <point x="553" y="64" type="curve" smooth="yes"/>
      <point x="451" y="64"/>
      <point x="400" y="97"/>
      <point x="400" y="346" type="curve" smooth="yes"/>
      <point x="400" y="595"/>
      <point x="448" y="632"/>
      <point x="553" y="632" type="curve" smooth="yes"/>
      <point x="658" y="632"/>
      <point x="707" y="595"/>
      <point x="707" y="346" type="curve" smooth="yes"/>
      <point x="707" y="97"/>
      <point x="655" y="64"/>
    </contour>
  </outline>
</glyph>
<glyph name="ge-cy" format="2">
  <advance width="414"/>
  <unicode hex="0433"/>
  <anchor x="394" y="0" name="bottomright"/>
  <anchor x="238" y="582" name="top"/>
  <outline>
    <contour>
      <point x="79" y="0" type="line"/>
      <point x="162" y="0" type="line"/>
      <point x="160" y="582" type="line"/>
      <point x="79" y="582" type="line"/>
    </contour>
    <contour>
      <point x="389" y="509" type="line"/>
      <point x="389" y="582" type="line"/>
      <point x="79" y="582" type="line"/>
      <point x="79" y="511" type="line"/>
    </contour>
  </outline>
</glyph>
<glyph name="ze-cy" format="2">
  <advance width="494"/>
  <unicode hex="0437"/>
  <outline>
    <contour>
      <point x="246" y="-13" type="curve" smooth="yes"/>
      <point x="394" y="-13"/>
      <point x="440" y="65"/>
      <point x="440" y="163" type="curve" smooth="yes"/>
      <point x="440" y="241"/>
      <point x="398" y="290"/>
      <point x="322" y="299" type="curve"/>
      <point x="322" y="305" type="line"/>
      <point x="386" y="312"/>
      <point x="422" y="363"/>
      <point x="422" y="446" type="curve" smooth="yes"/>
      <point x="422" y="561"/>
      <point x="354" y="595"/>
      <point x="251" y="595" type="curve" smooth="yes"/>
      <point x="188" y="595"/>
      <point x="157" y="591"/>
      <point x="80" y="577" type="curve"/>
      <point x="87" y="507" type="line"/>
      <point x="166" y="521"/>
      <point x="191" y="522"/>
      <point x="236" y="522" type="curve" smooth="yes"/>
      <point x="276" y="522"/>
      <point x="302" y="519"/>
      <point x="321" y="507" type="curve" smooth="yes"/>
      <point x="332" y="500"/>
      <point x="337" y="469"/>
      <point x="337" y="434" type="curve" smooth="yes"/>
      <point x="337" y="353"/>
      <point x="311" y="331"/>
      <point x="196" y="331" type="curve" smooth="yes"/>
      <point x="126" y="331" type="line"/>
      <point x="126" y="264" type="line"/>
      <point x="239" y="264" type="line" smooth="yes"/>
      <point x="315" y="264"/>
      <point x="353" y="241"/>
      <point x="353" y="168" type="curve" smooth="yes"/>
      <point x="353" y="82"/>
      <point x="336" y="56"/>
      <point x="266" y="56" type="curve" smooth="yes"/>
      <point x="150" y="56"/>
      <point x="68" y="101"/>
      <point x="68" y="101" type="curve"/>
      <point x="42" y="37" type="line"/>
      <point x="40" y="37"/>
      <point x="122" y="-13"/>
    </contour>
  </outline>
</glyph>
<glyph name="ii-cy" format="2">
  <advance width="627"/>
  <unicode hex="0438"/>
  <anchor x="598" y="0" name="bottomright"/>
  <anchor x="320" y="582" name="top"/>
  <outline>
    <contour>
      <point x="99" y="589" type="line"/>
      <point x="99" y="7" type="line"/>
      <point x="205" y="7" type="line"/>
      <point x="482" y="537" type="line"/>
      <point x="427" y="498" type="line"/>
      <point x="508" y="498" type="line"/>
      <point x="467" y="541" type="line"/>
      <point x="456" y="7" type="line"/>
      <point x="539" y="7" type="line"/>
      <point x="539" y="589" type="line"/>
      <point x="433" y="589" type="line"/>
      <point x="157" y="60" type="line"/>
      <point x="212" y="98" type="line"/>
      <point x="132" y="98" type="line"/>
      <point x="171" y="56" type="line"/>
      <point x="182" y="589" type="line"/>
    </contour>
  </outline>
</glyph>
<glyph name="em-cy" format="2">
  <advance width="738"/>
  <unicode hex="043C"/>
  <outline>
    <contour>
      <point x="84" y="0" type="line"/>
      <point x="168" y="0" type="line"/>
      <point x="177" y="536" type="line"/>
      <point x="138" y="498" type="line"/>
      <point x="220" y="498" type="line"/>
      <point x="170" y="534" type="line"/>
      <point x="330" y="62" type="line"/>
      <point x="281" y="98" type="line"/>
      <point x="454" y="98" type="line"/>
      <point x="407" y="62" type="line"/>
      <point x="568" y="534" type="line"/>
      <point x="517" y="498" type="line"/>
      <point x="598" y="498" type="line"/>
      <point x="561" y="536" type="line"/>
      <point x="570" y="0" type="line"/>
      <point x="654" y="0" type="line"/>
      <point x="630" y="582" type="line"/>
      <point x="509" y="582" type="line"/>
      <point x="359" y="141" type="line"/>
      <point x="409" y="177" type="line"/>
      <point x="328" y="177" type="line"/>
      <point x="378" y="141" type="line"/>
      <point x="229" y="582" type="line"/>
      <point x="108" y="582" type="line"/>
    </contour>
  </outline>
</glyph>
<glyph name="sha-cy" format="2">
  <advance width="941"/>
  <unicode hex="0448"/>
  <outline>
    <contour>
      <point x="753" y="0" type="line"/>
      <point x="836" y="0" type="line"/>
      <point x="836" y="582" type="line"/>
      <point x="753" y="582" type="line"/>
    </contour>
    <contour>
      <point x="105" y="0" type="line"/>
      <point x="512" y="0" type="line"/>
      <point x="512" y="72" type="line"/>
      <point x="105" y="72" type="line"/>
    </contour>
    <contour>
      <point x="105" y="0" type="line"/>
      <point x="188" y="0" type="line"/>
      <point x="188" y="582" type="line"/>
      <point x="105" y="582" type="line"/>
    </contour>
    <contour>
      <point x="429" y="0" type="line"/>
      <point x="836" y="0" type="line"/>
      <point x="836" y="72" type="line"/>
      <point x="429" y="72" type="line"/>
    </contour>
    <contour>
      <point x="429" y="0" type="line"/>
      <point x="512" y="0" type="line"/>
      <point x="512" y="582" type="line"/>
      <point x="429" y="582" type="line"/>
    </contour>
  </outline>
</glyph>
<glyph name="shcha-cy" format="2">
  <advance width="998"/>
  <unicode hex="0449"/>
  <outline>
    <contour>
      <point x="757" y="0" type="line"/>
      <point x="840" y="0" type="line"/>
      <point x="840" y="582" type="line"/>
      <point x="757" y="582" type="line"/>
    </contour>
    <contour>
      <point x="79" y="0" type="line"/>
      <point x="501" y="0" type="line"/>
      <point x="501" y="72" type="line"/>
      <point x="290" y="71" type="line"/>
      <point x="79" y="72" type="line"/>
    </contour>
    <contour>
      <point x="79" y="0" type="line"/>
      <point x="162" y="0" type="line"/>
      <point x="162" y="582" type="line"/>
      <point x="79" y="582" type="line"/>
    </contour>
    <contour>
      <point x="418" y="0" type="line"/>
      <point x="840" y="0" type="line"/>
      <point x="840" y="72" type="line"/>
      <point x="629" y="71" type="line"/>
      <point x="418" y="72" type="line"/>
    </contour>
    <contour>
      <point x="418" y="0" type="line"/>
      <point x="501" y="0" type="line"/>
      <point x="501" y="582" type="line"/>
      <point x="418" y="582" type="line"/>
    </contour>
    <contour>
      <point x="834" y="-133" type="line"/>
      <point x="898" y="-133" type="line"/>
      <point x="898" y="72" type="line"/>
      <point x="810" y="72" type="line"/>
    </contour>
  </outline>
</glyph>
<glyph name="yeru-cy" format="2">
  <advance width="820"/>
  <unicode hex="044B"/>
  <guideline x="586" y="582" angle="0"/>
  <outline>
    <contour>
      <point x="646" y="-1" type="line"/>
      <point x="730" y="0" type="line"/>
      <point x="725" y="326" type="line"/>
      <point x="730" y="582" type="line"/>
      <point x="646" y="582" type="line"/>
      <point x="650" y="256" type="line"/>
    </contour>
    <component base="softsign-cy" xOffset="22"/>
  </outline>
</glyph>
<glyph name="lje-cy" format="2">
  <advance width="873"/>
  <unicode hex="0459"/>
  <outline>
    <contour>
      <point x="131" y="510" type="line"/>
      <point x="245" y="511" type="line"/>
      <point x="439" y="510" type="line"/>
      <point x="439" y="583" type="line"/>
      <point x="131" y="583" type="line"/>
    </contour>
    <contour>
      <point x="8" y="-13" type="line"/>
      <point x="5" y="-13"/>
      <point x="20" y="-13"/>
      <point x="31" y="-13" type="curve" smooth="yes"/>
      <point x="125" y="-13"/>
      <point x="165" y="46"/>
      <point x="173" y="145" type="curve" smooth="yes"/>
      <point x="210" y="581" type="line"/>
      <point x="127" y="582" type="line"/>
      <point x="100" y="216" type="line" smooth="yes"/>
      <point x="91" y="93"/>
      <point x="77" y="80"/>
      <point x="59" y="68" type="curve" smooth="yes"/>
      <point x="42" y="57"/>
      <point x="16" y="53"/>
      <point x="-3" y="52" type="curve"/>
    </contour>
    <component base="softsign-cy" xOffset="306"/>
  </outline>
</glyph>
<glyph name="nje-cy" format="2">
  <advance width="903"/>
  <unicode hex="045A"/>
  <outline>
    <contour>
      <point x="90" y="0" type="line"/>
      <point x="173" y="0" type="line"/>
      <point x="173" y="582" type="line"/>
      <point x="90" y="582" type="line"/>
    </contour>
    <contour>
      <point x="97" y="266" type="line"/>
      <point x="314" y="267" type="line"/>
      <point x="493" y="266" type="line"/>
      <point x="493" y="338" type="line"/>
      <point x="97" y="338" type="line"/>
    </contour>
    <component base="softsign-cy" xOffset="373"/>
  </outline>
</glyph>
<glyph name="Izhitsa-cy" format="2">
  <advance width="519"/>
  <unicode hex="0474"/>
  <guideline x="392" y="621" angle="0"/>
  <anchor x="260" y="695" name="top"/>
  <outline>
    <contour>
      <point x="193" y="0" type="line"/>
      <point x="313" y="0" type="line"/>
      <point x="448" y="500" type="line"/>
      <point x="372" y="527" type="line"/>
      <point x="247" y="37" type="line"/>
      <point x="294" y="74" type="line"/>
      <point x="212" y="74" type="line"/>
      <point x="259" y="37" type="line"/>
      <point x="99" y="665" type="line"/>
      <point x="13" y="665" type="line"/>
    </contour>
    <contour>
      <point x="564" y="707" type="line"/>
      <point x="550" y="709"/>
      <point x="540" y="709"/>
      <point x="531" y="709" type="curve" smooth="yes"/>
      <point x="507" y="709"/>
      <point x="468" y="702"/>
      <point x="447" y="687" type="curve" smooth="yes"/>
      <point x="411" y="661"/>
      <point x="399" y="627"/>
      <point x="383" y="571" type="curve" smooth="yes"/>
      <point x="377" y="550"/>
      <point x="372" y="527"/>
      <point x="366" y="500" type="curve"/>
      <point x="444" y="486" type="line"/>
      <point x="477" y="608"/>
      <point x="485" y="627"/>
      <point x="524" y="638" type="curve" smooth="yes"/>
      <point x="535" y="641"/>
      <point x="544" y="641"/>
      <point x="558" y="641" type="curve"/>
    </contour>
  </outline>
</glyph>
<glyph name="Gheupturn-cy" format="2">
  <advance width="455"/>
  <unicode hex="0490"/>
  <outline>
    <contour>
      <point x="320" y="623" type="line"/>
      <point x="345" y="807" type="line"/>
      <point x="416" y="807" type="line"/>
      <point x="416" y="622" type="line"/>
    </contour>
    <component base="Ge-cy"/>
  </outline>
</glyph>
<glyph name="ghestroke-cy" format="2">
  <advance width="534"/>
  <unicode hex="0493"/>
  <outline>
    <contour>
      <point x="69" y="264" type="line"/>
      <point x="232" y="265" type="line"/>
      <point x="426" y="264" type="line"/>
      <point x="426" y="337" type="line"/>
      <point x="69" y="337" type="line"/>
    </contour>
    <component base="ge-cy" xOffset="100"/>
  </outline>
</glyph>
<glyph name="Kadescender-cy" format="2">
  <advance width="599"/>
  <unicode hex="049A"/>
  <outline>
    <contour>
      <point x="540" y="-124" type="line"/>
      <point x="614" y="-124" type="line"/>
      <point x="614" y="74" type="line"/>
      <point x="517" y="74" type="line"/>
    </contour>
    <component base="Ka-cy"/>
  </outline>
</glyph>
<glyph name="kadescender-cy" format="2">
  <advance width="556"/>
  <unicode hex="049B"/>
  <outline>
    <contour>
      <point x="480" y="-136" type="line"/>
      <point x="544" y="-136" type="line"/>
      <point x="544" y="72" type="line"/>
      <point x="456" y="72" type="line"/>
    </contour>
    <component base="ka-cy"/>
  </outline>
</glyph>
<glyph name="ustrait-cy" format="2">
  <advance width="469"/>
  <unicode hex="04AF"/>
  <guideline x="283" y="58" angle="0"/>
  <outline>
    <contour>
      <point x="193" y="-166" type="line"/>
      <point x="276" y="-166" type="line"/>
      <point x="274" y="93" type="line"/>
      <point x="263" y="26" type="line"/>
      <point x="461" y="582" type="line"/>
      <point x="372" y="582" type="line"/>
      <point x="226" y="120" type="line"/>
      <point x="274" y="157" type="line"/>
      <point x="193" y="157" type="line"/>
      <point x="243" y="120" type="line"/>
      <point x="97" y="582" type="line"/>
      <point x="8" y="582" type="line"/>
      <point x="205" y="29" type="line"/>
      <point x="195" y="93" type="line"/>
    </contour>
  </outline>
</glyph>
<glyph name="Hadescender-cy" format="2">
  <advance width="522"/>
  <unicode hex="04B2"/>
  <outline>
    <contour>
      <point x="479" y="-124" type="line"/>
      <point x="553" y="-124" type="line"/>
      <point x="553" y="74" type="line"/>
      <point x="456" y="74" type="line"/>
    </contour>
    <component base="Ha-cy"/>
  </outline>
</glyph>
<glyph name="Obarred-cy" format="2">
  <advance width="656"/>
  <unicode hex="04E8"/>
  <outline>
    <contour>
      <point x="138" y="391" type="line"/>
      <point x="138" y="317" type="line"/>
      <point x="506" y="317" type="line"/>
      <point x="505" y="391" type="line"/>
    </contour>
    <component base="O"/>
  </outline>
</glyph>
<glyph name="endash" format="2">
  <advance width="577"/>
  <unicode hex="2013"/>
  <outline>
    <contour>
      <point x="50" y="293" type="line"/>
      <point x="527" y="293" type="line"/>
      <point x="527" y="363" type="line"/>
      <point x="50" y="363" type="line"/>
    </contour>
  </outline>
</glyph>
<glyph name="emdash" format="2">
  <advance width="801"/>
  <unicode hex="2014"/>
  <outline>
    <contour>
      <point x="70" y="293" type="line"/>
      <point x="731" y="293" type="line"/>
      <point x="731" y="363" type="line"/>
      <point x="70" y="363" type="line"/>
    </contour>
  </outline>
</glyph>
<glyph name="quoteleft" format="2">
  <advance width="226"/>
  <unicode hex="2018"/>
  <outline>
    <contour>
      <point x="63" y="481" type="curve"/>
      <point x="142" y="481" type="line"/>
      <point x="142" y="481"/>
      <point x="136" y="544"/>
      <point x="136" y="598" type="curve" smooth="yes"/>
      <point x="136" y="644"/>
      <point x="146" y="669"/>
      <point x="167" y="696" type="curve"/>
      <point x="128" y="728" type="line"/>
      <point x="94" y="697"/>
      <point x="60" y="643"/>
      <point x="59" y="548" type="curve" smooth="yes"/>
      <point x="59" y="528"/>
      <point x="60" y="506"/>
    </contour>
  </outline>
</glyph>
<glyph name="quotesinglbase" format="2">
  <advance width="264"/>
  <unicode hex="201A"/>
  <outline>
    <contour>
      <point x="101" y="-114" type="line"/>
      <point x="135" y="-83"/>
      <point x="169" y="-29"/>
      <point x="170" y="66" type="curve" smooth="yes"/>
      <point x="170" y="86"/>
      <point x="169" y="108"/>
      <point x="166" y="133" type="curve"/>
      <point x="87" y="133" type="line"/>
      <point x="87" y="133"/>
      <point x="93" y="70"/>
      <point x="93" y="16" type="curve" smooth="yes"/>
      <point x="93" y="-30"/>
      <point x="83" y="-55"/>
      <point x="62" y="-82" type="curve"/>
    </contour>
  </outline>
</glyph>
<glyph name="quotedblright" format="2">
  <advance width="366"/>
  <unicode hex="201D"/>
  <outline>
    <contour>
      <point x="238" y="466" type="line"/>
      <point x="272" y="497"/>
      <point x="306" y="551"/>
      <point x="307" y="646" type="curve" smooth="yes"/>
      <point x="307" y="666"/>
      <point x="306" y="688"/>
      <point x="303" y="713" type="curve"/>
      <point x="224" y="713" type="line"/>
      <point x="224" y="713"/>
      <point x="230" y="650"/>
      <point x="230" y="596" type="curve" smooth="yes"/>
      <point x="230" y="550"/>
      <point x="220" y="525"/>
      <point x="199" y="498" type="curve"/>
    </contour>
    <contour>
      <point x="98" y="466" type="line"/>
      <point x="132" y="497"/>
      <point x="166" y="551"/>
      <point x="167" y="646" type="curve" smooth="yes"/>
      <point x="167" y="666"/>
      <point x="166" y="688"/>
      <point x="163" y="713" type="curve"/>
      <point x="84" y="713" type="line"/>
      <point x="84" y="713"/>
      <point x="90" y="650"/>
      <point x="90" y="596" type="curve" smooth="yes"/>
      <point x="90" y="550"/>
      <point x="80" y="525"/>
      <point x="59" y="498" type="curve"/>
    </contour>
  </outline>
</glyph>
<glyph name="bullet" format="2">
  <advance width="372"/>
  <unicode hex="2022"/>
  <outline>
    <contour>
      <point x="187" y="324" type="curve" smooth="yes"/>
      <point x="244" y="324"/>
      <point x="302" y="355"/>
      <point x="302" y="442" type="curve" smooth="yes"/>
      <point x="302" y="527"/>
      <point x="244" y="558"/>
      <point x="187" y="558" type="curve" smooth="yes"/>
      <point x="128" y="558"/>
      <point x="70" y="528"/>
      <point x="70" y="442" type="curve" smooth="yes"/>
      <point x="70" y="355"/>
      <point x="128" y="324"/>
    </contour>
  </outline>
</glyph>
<glyph name="guilsinglright" format="2">
  <advance width="282"/>
  <unicode hex="203A"/>
  <outline>
    <contour>
      <point x="101" y="88" type="line"/>
      <point x="242" y="330" type="line"/>
      <point x="101" y="572" type="line"/>
      <point x="39" y="534" type="line"/>
      <point x="161" y="334" type="line"/>
      <point x="161" y="327" type="line"/>
      <point x="39" y="127" type="line"/>
    </contour>
  </outline>
</glyph>
<glyph name="Euro" format="2">
  <advance width="594"/>
  <unicode hex="20AC"/>
  <outline>
    <contour>
      <point x="346" y="-13" type="curve" smooth="yes"/>
      <point x="467" y="-13"/>
      <point x="556" y="48"/>
      <point x="556" y="48" type="curve"/>
      <point x="527" y="114" type="line"/>
      <point x="527" y="114"/>
      <point x="434" y="58"/>
      <point x="332" y="58" type="curve" smooth="yes"/>
      <point x="298" y="58"/>
      <point x="273" y="64"/>
      <point x="254" y="83" type="curve" smooth="yes"/>
      <point x="230" y="107"/>
      <point x="205" y="164"/>
      <point x="196" y="256" type="curve"/>
      <point x="493" y="256" type="line"/>
      <point x="493" y="322" type="line"/>
      <point x="46" y="322" type="line"/>
      <point x="46" y="256" type="line"/>
      <point x="106" y="256" type="line"/>
      <point x="126" y="56"/>
      <point x="218" y="-13"/>
    </contour>
    <contour>
      <point x="46" y="379" type="line"/>
      <point x="493" y="379" type="line"/>
      <point x="493" y="445" type="line"/>
      <point x="196" y="445" type="line"/>
      <point x="205" y="540"/>
      <point x="226" y="585"/>
      <point x="244" y="605" type="curve" smooth="yes"/>
      <point x="259" y="622"/>
      <point x="287" y="632"/>
      <point x="350" y="632" type="curve" smooth="yes"/>
      <point x="410" y="632"/>
      <point x="491" y="623"/>
      <point x="517" y="620" type="curve"/>
      <point x="526" y="692" type="line"/>
      <point x="494" y="700"/>
      <point x="407" y="708"/>
      <point x="356" y="708" type="curve" smooth="yes"/>
      <point x="231" y="708"/>
      <point x="130" y="659"/>
      <point x="107" y="445" type="curve"/>
      <point x="46" y="445" type="line"/>
    </contour>
  </outline>
</glyph>
<glyph name="rightArrow" format="2">
  <advance width="885"/>
  <unicode hex="2192"/>
  <outline>
    <contour>
      <point x="780" y="0" type="line"/>
      <point x="780" y="695" type="line"/>
      <point x="696" y="695" type="line"/>
      <point x="699" y="41" type="line"/>
      <point x="746" y="79" type="line"/>
      <point x="85" y="84" type="line"/>
      <point x="85" y="0" type="line"/>
    </contour>
    <contour>
      <point x="791" y="192" type="line"/>
      <point x="731" y="100" type="line"/>
      <point x="189" y="709" type="line"/>
      <point x="116" y="642" type="line"/>
      <point x="709" y="8" type="line"/>
      <point x="634" y="-4" type="line"/>
    </contour>
  </outline>
</glyph>
<glyph name="brevecomb.case" format="2">
  <anchor x="149" y="695" name="_top"/>
  <anchor x="149" y="840" name="top"/>
  <outline>
    <contour>
      <point x="149" y="739" type="curve" smooth="yes"/>
      <point x="223" y="739"/>
      <point x="293" y="779"/>
      <point x="298" y="869" type="curve"/>
      <point x="241" y="874" type="line"/>
      <point x="236" y="825"/>
      <point x="200" y="805"/>
      <point x="149" y="805" type="curve" smooth="yes"/>
      <point x="98" y="805"/>
      <point x="62" y="825"/>
      <point x="57" y="874" type="curve"/>
      <point x="0" y="869" type="line"/>
      <point x="4" y="779"/>
      <point x="75" y="739"/>
    </contour>
  </outline>
</glyph>
<glyph name="brevecyrillic.case-cy" format="2">
  <advance width="298"/>
  <anchor x="149" y="695" name="_top"/>
  <anchor x="149" y="840" name="top"/>
  <outline>
    <contour>
      <point x="149" y="724" type="curve" smooth="yes"/>
      <point x="238" y="724"/>
      <point x="298" y="769"/>
      <point x="303" y="872" type="curve"/>
      <point x="251" y="874" type="line"/>
      <point x="246" y="830"/>
      <point x="225" y="802"/>
      <point x="149" y="802" type="curve" smooth="yes"/>
      <point x="83" y="802"/>
      <point x="62" y="830"/>
      <point x="57" y="874" type="curve"/>
      <point x="-5" y="872" type="line"/>
      <point x="-1" y="769"/>
      <point x="60" y="724"/>
    </contour>
  </outline>
</glyph>
<glyph name="dotaccentcomb.case" format="2">
  <anchor x="52" y="695" name="_top"/>
  <anchor x="52" y="843" name="top"/>
  <outline>
    <contour>
      <point x="0" y="763" type="line"/>
      <point x="104" y="763" type="line"/>
      <point x="104" y="845" type="line"/>
      <point x="0" y="845" type="line"/>
    </contour>
  </outline>
</glyph>
<glyph name="macroncomb.case" format="2">
  <anchor x="160" y="695" name="_top"/>
  <anchor x="160" y="840" name="top"/>
  <outline>
    <contour>
      <point x="0" y="767" type="line"/>
      <point x="320" y="767" type="line"/>
      <point x="320" y="832" type="line"/>
      <point x="0" y="832" type="line"/>
    </contour>
  </outline>
</glyph>
<glyph name="tildecombo" format="2">
  <advance width="306"/>
  <anchor x="153" y="582" name="_top"/>
  <anchor x="153" y="760" name="top"/>
  <outline>
    <contour>
      <point x="166" y="677" type="curve" smooth="yes"/>
      <point x="202" y="677"/>
      <point x="249" y="701"/>
      <point x="249" y="776" type="curve"/>
      <point x="196" y="783" type="line"/>
      <point x="196" y="783"/>
      <point x="181" y="738"/>
      <point x="161" y="738" type="curve" smooth="yes"/>
      <point x="138" y="738"/>
      <point x="95" y="786"/>
      <point x="55" y="786" type="curve" smooth="yes"/>
      <point x="17" y="786"/>
      <point x="-17" y="761"/>
      <point x="-17" y="685" type="curve"/>
      <point x="35" y="679" type="line"/>
      <point x="35" y="679"/>
      <point x="39" y="725"/>
      <point x="57" y="725" type="curve" smooth="yes"/>
      <point x="81" y="725"/>
      <point x="126" y="677"/>
    </contour>
  </outline>
</glyph>
